<svg width="1440" height="1024" viewBox="0 0 1440 1024" fill="none" xmlns="http://www.w3.org/2000/svg">
<g clip-path="url(#clip0)">
<g clip-path="url(#clip1)">
<path d="M0 247.034V-684H720H1440V247.034V1178.07H720H0V247.034Z" fill="#FFC000"/>
<path d="M0 247.034V-684H720H1440V247.034V1178.07H720H0V247.034ZM1182.41 1174.97C1182.41 1174.03 1175.74 1173.41 1165.5 1173.41C1156.03 1173.41 1148.12 1172.79 1147.66 1172.17C1146.88 1170.78 1109.02 1168.29 1094.43 1168.76C1090.09 1168.76 1086.05 1168.29 1085.59 1167.52C1085.12 1166.74 1071.93 1165.5 1056.41 1164.88C1040.74 1164.26 1027.4 1163.17 1026.47 1162.55C1024.91 1161.31 989.069 1158.98 978.672 1159.29C975.259 1159.45 971.845 1158.98 970.914 1158.21C969.052 1156.66 936.931 1154.33 925.138 1154.64C921.414 1154.79 917.534 1154.33 916.603 1153.55C914.741 1152.16 883.862 1149.52 873 1149.98C869.741 1150.14 866.328 1149.67 865.241 1148.9C863.379 1147.34 832.5 1145.02 821.328 1145.33C817.603 1145.48 814.655 1145.02 814.655 1144.24C814.655 1142.84 786.879 1140.36 774.465 1140.67C770.741 1140.83 766.862 1140.21 765.931 1139.43C764.069 1138.03 739.552 1135.71 727.914 1136.02C724.034 1136.02 720.155 1135.55 719.379 1134.78C717.517 1133.38 690.983 1131.05 680.586 1131.36C677.172 1131.36 673.759 1130.9 672.828 1130.12C670.965 1128.72 645.828 1126.4 634.345 1126.71C630.155 1126.71 626.897 1126.24 626.897 1125.47C626.897 1124.84 620.379 1123.6 612.621 1122.98C591.207 1121.43 585.621 1120.81 569.483 1118.95C561.414 1118.02 551.638 1117.24 547.914 1117.4C544.034 1117.4 540.155 1116.78 539.379 1116C538.448 1115.38 532.086 1114.29 525.259 1113.67C508.034 1112.28 502.603 1111.66 485.69 1109.64C477.621 1108.71 468.465 1107.78 465.517 1107.47C462.569 1107.31 457.603 1106.69 454.655 1106.07C451.707 1105.45 445.81 1104.67 441.465 1104.36C434.017 1103.74 414.621 1101.57 370.086 1096.45C359.069 1095.21 341.534 1093.19 331.293 1092.1C321.052 1091.17 311.586 1089.78 310.345 1089.31C307.397 1088.07 285.052 1086.21 277.914 1086.36C275.121 1086.52 272.017 1086.05 270.931 1085.28C269.224 1083.88 246.724 1081.4 238.345 1081.71C236.017 1081.86 233.224 1081.24 232.138 1080.62C230.431 1079.22 206.224 1076.74 198 1077.05C195.672 1077.21 192.879 1076.74 191.793 1075.97C189.931 1074.41 167.121 1072.09 157.966 1072.4C154.707 1072.55 152.069 1072.09 152.069 1071.31C152.069 1069.91 128.483 1067.43 118.862 1067.74C116.379 1067.74 113.586 1067.28 112.655 1066.5C110.793 1065.1 87.9828 1062.78 78.0517 1063.09C74.3276 1063.24 71.3793 1062.62 71.3793 1062C71.3793 1060.76 57.8793 1059.05 38.7931 1057.97C35.8448 1057.81 32.2759 1057.19 31.0345 1056.72C29.7931 1056.1 22.9655 1055.33 15.9828 1055.02L3.10345 1054.24V1088.53C3.10345 1107.47 2.63793 1135.09 2.01724 1149.83L1.08621 1176.52H591.672C984.414 1176.52 1182.41 1176.05 1182.41 1174.97ZM1205.38 1175.43C1203.83 1175.12 1201.03 1175.12 1199.17 1175.43C1197.16 1175.74 1198.4 1176.05 1201.81 1176.05C1205.22 1176.21 1206.78 1175.9 1205.38 1175.43ZM1367.69 1175.12C1368.78 1173.57 1362.57 1172.02 1359.47 1173.1C1357.76 1173.72 1357.76 1174.03 1359.47 1175.12C1362.26 1176.83 1366.6 1176.83 1367.69 1175.12ZM1379.02 1175.43C1378.4 1174.97 1377.47 1174.97 1376.84 1175.43C1376.38 1176.05 1376.84 1176.52 1377.93 1176.52C1379.02 1176.52 1379.48 1176.05 1379.02 1175.43ZM1354.66 1172.02C1354.66 1171.24 1349.07 1170.16 1342.24 1169.53C1335.41 1168.91 1329.52 1167.83 1329.05 1167.21C1328.59 1166.43 1323 1165.5 1316.64 1164.88C1310.28 1164.26 1305 1163.17 1305 1162.55C1305 1161.93 1299.41 1160.84 1292.59 1160.22C1285.76 1159.6 1280.17 1158.52 1280.17 1157.9C1280.17 1157.28 1276.45 1156.34 1272.1 1155.72C1259.07 1154.02 1257.83 1153.86 1255.34 1152.78C1253.48 1152.16 1246.19 1150.76 1235.95 1149.36C1235.17 1149.21 1233.31 1148.59 1232.07 1148.12C1229.12 1147.03 1216.86 1145.17 1212.36 1145.17C1210.34 1145.17 1208.79 1144.55 1208.79 1143.93C1208.79 1143.31 1205.07 1142.38 1200.72 1141.76C1187.84 1140.05 1186.45 1139.9 1183.97 1138.97C1180.71 1137.57 1170 1135.86 1165.81 1135.86C1163.79 1135.86 1162.24 1135.24 1162.24 1134.47C1162.24 1133.69 1159.91 1133.07 1156.97 1133.07C1154.02 1133.07 1149.83 1132.45 1147.66 1131.52C1144.09 1130.12 1129.66 1127.17 1121.12 1126.09C1119.41 1125.93 1116.93 1125.31 1115.69 1124.84C1114.45 1124.38 1110.57 1123.6 1107.16 1122.98C1097.69 1121.43 1096.45 1121.12 1093.97 1120.19C1091.95 1119.41 1086.52 1118.33 1077.67 1116.93C1075.97 1116.62 1073.48 1116 1072.24 1115.38C1071 1114.91 1067.9 1114.14 1065.26 1113.83C1062.78 1113.36 1057.5 1112.28 1053.78 1111.34C1050.05 1110.41 1045.24 1109.33 1042.91 1109.02C1033.14 1107.16 1018.55 1104.05 1016.38 1103.28C1015.14 1102.66 1011.26 1101.72 1007.84 1101.1C1004.43 1100.48 1000.55 1099.86 999.31 1099.55C998.069 1099.24 992.483 1098.16 986.897 1097.07C981.31 1095.98 976.19 1094.59 975.259 1094.12C974.483 1093.5 969.828 1092.57 965.172 1091.95C960.517 1091.33 956.017 1090.24 955.086 1089.62C953.845 1088.69 945 1086.67 938.017 1085.74C937.241 1085.59 935.379 1085.12 934.138 1084.66C930.724 1083.26 919.707 1081.24 917.534 1081.71C916.448 1081.86 915.517 1081.4 915.517 1080.62C915.517 1079.84 911.793 1078.6 907.448 1077.98C902.948 1077.21 898.914 1076.59 898.448 1076.43C897.983 1076.28 896.586 1075.81 895.345 1075.19C891.931 1073.95 880.914 1071.93 878.741 1072.4C877.655 1072.55 876.724 1072.09 876.724 1071.31C876.724 1070.07 868.5 1068.05 860.897 1067.43C859.345 1067.28 858.103 1066.81 858.103 1066.19C858.103 1065.57 855.155 1064.64 851.586 1064.17C844.293 1063.24 841.5 1062.62 837.931 1061.22C834.517 1059.98 826.759 1058.43 822.879 1058.12C820.862 1057.97 819.31 1057.34 819.31 1056.88C819.31 1056.26 816.672 1055.33 813.569 1054.86C806.431 1053.78 803.793 1053.16 800.69 1051.91C797.741 1050.83 789.828 1049.12 786.414 1048.81C784.862 1048.66 783.621 1048.03 783.621 1047.41C783.621 1046.79 781.293 1046.17 778.5 1046.17C775.707 1046.17 772.759 1045.55 771.983 1044.78C771.052 1044 767.017 1042.6 762.672 1041.67C751.81 1039.34 738.31 1036.09 735.517 1034.84C734.276 1034.38 730.086 1033.29 726.207 1032.36C713.638 1029.57 705.259 1027.4 702.931 1026.16C701.534 1025.38 697.345 1024.29 693.621 1023.67C689.741 1023.05 686.017 1021.97 685.086 1021.34C683.379 1020.1 672.207 1017.78 671.431 1018.55C671.121 1018.86 669.879 1018.24 668.638 1017.31C666.776 1015.91 658.397 1013.59 653.741 1013.43C652.965 1013.28 651.879 1012.81 650.948 1012.03C650.172 1011.41 646.603 1010.33 643.19 1009.71C636.517 1008.31 636.517 1008.31 633.103 1006.91C629.69 1005.67 622.397 1004.12 621.776 1004.59C621.465 1004.9 620.224 1004.28 618.983 1003.34C617.741 1002.26 613.707 1001.02 609.828 1000.4C606.103 999.776 601.914 998.69 600.517 997.914C597.414 996.207 589.345 994.345 587.017 994.81C585.931 994.965 585 994.5 585 993.724C585 992.793 582.672 991.707 580.034 991.241C572.431 989.69 570.414 989.224 567.931 988.293C566.69 987.828 561.724 986.276 557.069 984.879C536.276 978.828 530.69 977.121 518.276 973.241C510.983 970.914 500.897 967.81 495.776 966.259C490.655 964.707 483.983 962.69 481.034 961.603C473.897 958.965 445.034 949.655 443.017 949.345C442.241 949.19 440.845 948.724 439.914 948.259C439.138 947.638 436.345 946.707 433.707 946.086C428.431 944.69 428.431 944.534 425.172 943.448C423.931 942.828 417.569 940.965 411.207 939.103C404.845 937.086 397.241 934.603 394.448 933.362C391.655 932.121 387.931 931.034 386.379 930.879C384.672 930.724 383.276 930.103 383.276 929.483C383.276 928.862 381.569 928.241 379.552 928.241C377.379 928.241 375.362 927.621 374.741 926.69C374.276 925.914 372.879 925.603 371.638 926.224C370.397 926.69 369.31 926.379 369.31 925.448C369.31 924.672 366.983 923.431 364.345 922.81C361.552 922.19 358.914 921.414 358.448 921.259C357.983 921.103 356.586 920.638 355.345 920.017C352.862 919.086 336.724 913.345 318.879 907.293C312.983 905.276 303.207 901.707 297.155 899.534C291.259 897.207 285.672 895.19 284.741 895.034C283.966 894.724 281.483 893.948 279.31 893.017C277.138 892.241 271.552 890.224 266.897 888.672C262.241 887.276 256.5 884.948 254.172 883.862C252 882.621 248.741 881.69 247.19 881.69C245.638 881.69 243.621 881.069 242.69 880.293C241.603 879.052 219.569 870.207 219.569 870.828C219.569 870.983 216.776 870.052 200.172 863.69C186.207 858.259 178.448 855.155 173.017 852.983C166.19 850.19 160.759 848.483 159.517 848.793C158.741 848.948 158.276 848.483 158.276 847.707C158.276 846.465 149.897 843.517 149.586 844.759C149.586 845.069 148.345 844.293 147.103 843.362C144 840.724 124.138 833.276 124.138 834.828C124.138 835.448 123.517 835.138 122.897 834.207C122.276 833.276 116.224 830.172 109.397 827.534C102.569 824.741 94.9655 821.638 92.3276 820.396C86.2759 817.603 75.7241 813.259 73.7069 812.793C72.931 812.483 68.7414 810.776 64.7069 809.069C60.5172 807.207 56.7931 805.655 56.3276 805.655C55.8621 805.655 52.6034 804.259 49.0345 802.707C17.6897 788.121 2.94828 782.379 2.32759 784.396C1.86207 785.328 1.7069 820.552 1.86207 862.293L2.32759 938.328L11.6379 939.879C16.7586 940.81 21.7241 941.896 22.5 942.362C24.3621 943.603 37.3966 946.086 39.4138 945.621C40.0345 945.31 41.431 945.776 42.5172 946.707C43.4483 947.483 48.1034 948.569 52.7586 949.19C57.4138 949.81 62.069 950.896 62.8448 951.517C64.5517 952.759 78.9828 955.396 81.3103 954.776C81.931 954.621 83.3276 955.086 84.4138 955.862C85.3448 956.638 89.6897 957.879 93.8793 958.5C102.259 959.896 101.948 959.896 105.517 961.293C106.759 961.759 110.638 962.534 114.052 963.155C124.293 964.862 124.759 964.862 127.241 965.793C128.483 966.414 132.362 967.19 135.776 967.81C146.017 969.517 146.483 969.517 148.966 970.448C150.207 971.069 154.086 971.845 157.5 972.465C167.741 974.172 168.207 974.172 170.69 975.103C171.931 975.724 175.81 976.5 179.224 977.121C189.466 978.828 189.931 978.828 192.414 979.759C193.655 980.379 197.534 981.155 200.948 981.776C211.19 983.483 211.655 983.483 214.138 984.414C216.466 985.345 225.621 987.052 231.983 987.828C233.69 988.138 236.172 988.603 237.414 989.069C238.655 989.69 242.534 990.465 245.948 991.086C255.569 992.638 256.655 992.948 259.138 993.879C260.379 994.345 264.259 995.121 267.672 995.741C277.603 997.138 279.931 997.603 282.414 998.534C284.586 999.31 293.586 1001.02 300.259 1001.95C301.966 1002.1 304.448 1002.72 305.69 1003.19C307.707 1003.97 314.069 1005.05 323.845 1006.45C325.862 1006.6 327.879 1007.38 328.5 1007.84C328.966 1008.47 331.914 1008.93 334.707 1008.93C337.655 1008.93 341.224 1009.55 342.776 1010.33C344.172 1011.1 349.914 1012.5 355.5 1013.43C360.931 1014.36 371.328 1016.22 378.621 1017.62C385.914 1018.86 396.776 1020.88 402.672 1021.81C408.724 1022.9 414.31 1024.14 415.086 1024.76C416.017 1025.22 420.828 1026.16 425.948 1026.78C431.069 1027.24 436.655 1028.33 438.362 1029.1C441.776 1030.66 456.207 1032.98 458.379 1032.36C459.31 1032.21 461.328 1032.67 463.034 1033.6C465.828 1034.84 477.31 1037.17 484.138 1037.64C485.379 1037.79 487.552 1038.26 488.793 1038.72C490.034 1039.34 494.69 1040.12 498.879 1040.74C510.052 1042.29 510.983 1042.45 513.621 1043.38C516.724 1044.62 530.534 1046.48 535.034 1046.33C536.897 1046.33 538.448 1046.79 538.448 1047.57C538.448 1048.81 552.259 1050.98 560.638 1050.98C562.965 1050.98 564.828 1051.6 564.828 1052.22C564.828 1053.47 578.793 1055.64 587.017 1055.64C589.345 1055.64 591.207 1056.26 591.207 1056.88C591.207 1057.66 595.241 1058.59 600.207 1059.21C612.465 1060.6 614.948 1061.07 617.586 1062C620.379 1063.24 633.724 1065.1 639.776 1065.1C642.103 1065.26 643.965 1065.72 643.965 1066.34C643.965 1066.97 648.31 1067.9 653.741 1068.52C668.172 1070.22 669.414 1070.38 671.897 1071.31C674.069 1072.24 683.69 1073.79 693.621 1074.72C695.793 1075.03 698.586 1075.5 699.828 1076.12C702.155 1076.9 714.103 1078.76 721.552 1079.22C723.724 1079.38 726.207 1080 727.138 1080.62C728.069 1081.24 731.172 1081.86 734.121 1082.02C737.069 1082.17 741.569 1082.79 744.052 1083.57C746.69 1084.34 753.672 1085.59 759.569 1086.36C765.621 1087.29 776.793 1089 784.397 1090.24C841.965 1099.71 856.241 1101.88 870.517 1103.74C877.81 1104.67 885.103 1106.07 886.81 1106.69C888.517 1107.47 894.103 1108.4 899.224 1109.02C909.931 1110.26 912.879 1110.57 925.603 1112.9C930.724 1113.83 937.397 1114.6 940.345 1114.6C943.293 1114.76 946.552 1115.22 947.328 1116C948.724 1116.93 959.276 1118.64 971.379 1119.72C973.552 1119.88 976.345 1120.5 977.586 1120.97C979.603 1121.9 990.776 1123.29 1002.41 1124.38C1004.59 1124.53 1007.38 1125.16 1008.62 1125.62C1011.72 1126.86 1028.33 1128.72 1034.69 1128.57C1037.33 1128.41 1039.66 1129.03 1039.66 1129.81C1039.66 1131.05 1058.12 1133.53 1066.5 1133.22C1068.83 1133.22 1070.69 1133.69 1070.69 1134.47C1070.69 1135.71 1090.4 1138.19 1099.09 1137.88C1101.41 1137.88 1103.28 1138.5 1103.28 1139.12C1103.28 1140.36 1121.74 1142.69 1130.9 1142.53C1133.53 1142.38 1135.86 1143 1135.86 1143.78C1135.86 1145.02 1154.02 1147.34 1163.48 1147.19C1166.12 1147.03 1168.45 1147.66 1168.45 1148.43C1168.45 1149.52 1177.76 1150.91 1195.6 1152.31C1198.24 1152.47 1201.34 1153.09 1202.59 1153.71C1203.83 1154.17 1209.41 1155.1 1215 1155.72C1220.59 1156.19 1227.26 1156.97 1229.74 1157.28C1232.38 1157.59 1239.67 1158.67 1246.03 1159.6C1252.4 1160.53 1260.16 1161.47 1263.1 1161.93C1266.05 1162.24 1272.72 1163.17 1277.84 1163.95C1293.98 1166.43 1311.05 1168.76 1317.88 1169.69C1321.45 1170 1328.28 1170.93 1332.93 1171.71C1344.88 1173.57 1354.66 1173.72 1354.66 1172.02ZM1372.81 1167.67C1372.19 1167.21 1371.26 1167.21 1370.64 1167.67C1370.17 1168.29 1370.64 1168.76 1371.72 1168.76C1372.81 1168.76 1373.28 1168.29 1372.81 1167.67ZM1363.5 1164.57C1362.88 1164.1 1361.95 1164.1 1361.33 1164.57C1360.86 1165.19 1361.33 1165.66 1362.41 1165.66C1363.5 1165.66 1363.97 1165.19 1363.5 1164.57ZM1354.66 1162.55C1354.66 1161.78 1353.57 1161 1352.33 1161C1351.09 1161 1350 1161.78 1350 1162.55C1350 1163.48 1351.09 1164.1 1352.33 1164.1C1353.57 1164.1 1354.66 1163.48 1354.66 1162.55ZM1345.34 1161C1345.34 1160.22 1344.26 1159.45 1342.86 1159.45C1341.62 1159.45 1341 1160.22 1341.47 1161C1341.93 1161.93 1343.02 1162.55 1343.95 1162.55C1344.72 1162.55 1345.34 1161.93 1345.34 1161ZM1336.03 1157.9C1336.03 1157.12 1334.64 1156.34 1333.09 1156.34C1331.38 1156.34 1329.52 1157.12 1329.05 1157.9C1328.43 1158.83 1329.83 1159.45 1332 1159.45C1334.17 1159.45 1336.03 1158.83 1336.03 1157.9ZM1326.72 1156.34C1328.74 1155.1 1328.59 1154.79 1325.95 1154.64C1324.24 1154.48 1321.91 1154.48 1320.98 1154.64C1319.9 1154.79 1318.97 1154.33 1318.97 1153.55C1318.97 1152.62 1316.64 1151.53 1314 1151.07C1306.55 1149.67 1304.53 1149.05 1301.9 1148.28C1300.66 1147.81 1295.38 1146.26 1290.26 1144.71C1285.14 1143.31 1278.93 1141.45 1276.45 1140.67C1273.97 1140.05 1271.33 1139.74 1270.71 1140.21C1269.93 1140.67 1269.31 1140.21 1269.31 1139.43C1269.31 1138.5 1267.76 1137.72 1266.05 1137.72C1264.19 1137.72 1259.22 1136.64 1254.72 1135.24C1250.38 1133.84 1243.71 1131.83 1239.83 1130.74C1224.93 1126.55 1213.91 1123.29 1208.33 1121.28C1205.22 1120.03 1200.88 1119.1 1198.71 1119.1C1196.69 1119.1 1194.52 1118.33 1194.05 1117.4C1193.43 1116.47 1192.03 1116.16 1190.79 1116.62C1189.55 1117.09 1188.62 1116.93 1188.62 1116.16C1188.62 1115.38 1186.76 1114.45 1184.43 1113.98C1177.29 1112.59 1166.28 1109.64 1163.02 1108.09C1157.59 1105.6 1140.21 1100.48 1137.26 1100.48C1135.71 1100.48 1134.16 1099.86 1133.69 1099.09C1133.07 1098.31 1129.81 1097.22 1126.09 1096.6C1122.52 1095.98 1118.95 1094.9 1118.02 1094.28C1116.78 1093.34 1110.26 1091.33 1106.38 1090.55C1105.91 1090.4 1104.98 1089.93 1104.05 1089.47C1103.28 1088.84 1100.02 1087.91 1097.07 1087.29C1094.12 1086.83 1089.47 1085.28 1086.83 1084.03C1084.19 1082.95 1080.62 1081.71 1079.07 1081.4C1077.36 1081.09 1075.03 1080.31 1073.79 1079.84C1072.55 1079.22 1054.71 1073.17 1034.22 1066.5C990.155 1051.76 987.052 1050.67 983.017 1049.12C978.207 1047.1 966.259 1042.91 962.845 1042.14C961.138 1041.67 958.345 1040.59 956.638 1039.81C953.224 1038.26 926.845 1028.79 915.517 1024.91C911.638 1023.67 905.586 1021.34 902.172 1019.64C898.603 1018.09 893.638 1016.38 891.31 1015.76C888.828 1015.14 883.086 1012.97 878.586 1010.95C874.241 1009.09 870.362 1007.38 870.052 1007.53C869.897 1007.53 867.724 1006.76 865.086 1005.83C862.603 1004.74 859.81 1003.81 858.879 1003.66C858.103 1003.5 854.69 1002.1 851.431 1000.71C848.172 999.31 839.172 995.741 831.259 992.638C823.345 989.534 815.586 986.431 813.879 985.655C812.172 984.879 802.086 980.69 791.379 976.345C780.672 972 770.121 967.5 767.793 966.259C765.621 965.017 762.983 963.931 761.897 963.931C760.81 963.931 754.759 961.448 748.397 958.345C741.879 955.396 729.31 949.655 720.155 945.776C684.31 930.569 626.121 903.259 582.672 881.379C551.017 865.396 495.931 836.069 477.931 825.828C472.345 822.724 464.741 818.379 460.862 816.207C456.983 814.034 451.397 810.776 448.448 809.069C439.448 803.638 430.603 798.983 429.983 799.293C429.672 799.603 428.897 798.983 428.431 798.207C427.655 796.81 394.448 776.017 382.5 769.345C375.672 765.465 315.931 725.896 287.845 706.655C225.776 663.983 131.741 589.655 68.2759 533.172C50.8965 517.655 25.7586 494.845 16.6034 486C10.7069 480.414 5.43103 475.759 4.5 475.448C3.72414 475.138 3.10345 510.517 3.10345 567.931V660.879L38.4828 681.983C58.0345 693.776 74.7931 703.241 75.7241 703.241C76.8103 703.241 77.5862 703.862 77.5862 704.638C77.5862 705.414 78.8276 706.345 80.2241 706.965C81.7759 707.431 85.1897 709.138 87.6724 710.534C115.448 727.138 147.569 745.138 179.224 761.741C214.759 780.362 311.276 828.931 312.672 828.931C313.138 828.931 322.138 833.121 333 838.241C343.707 843.362 352.862 847.552 353.328 847.552C353.793 847.552 359.534 850.034 366.052 853.293C372.569 856.396 378.931 859.345 380.328 860.121C381.724 860.741 389.793 864.155 398.172 867.724C406.552 871.293 419.121 876.724 425.948 879.672C432.776 882.776 440.534 886.034 443.017 887.121C463.034 895.655 474.362 900.31 476.379 900.621C477.621 900.931 479.017 901.552 479.483 902.017C480.414 903.103 533.172 924.052 553.19 931.345C560.948 934.138 569.017 937.396 571.345 938.483C573.517 939.724 576.776 940.655 578.328 940.655C579.879 940.655 581.897 941.276 582.672 941.896C584.379 943.293 600.207 949.965 603.776 950.586C605.017 950.896 608.121 951.828 610.603 952.914C613.241 953.845 620.224 956.483 626.121 958.655C632.172 960.828 639.31 963.621 642.103 964.862C644.897 966.103 648.31 967.034 649.862 967.034C651.259 967.034 654.362 967.965 656.534 969.207C658.707 970.293 662.586 971.845 665.069 972.465C671.121 974.172 670.965 974.172 684.31 979.448C688.19 980.845 713.328 989.224 740.172 998.069C767.017 1006.76 790.138 1014.36 791.379 1015.14C792.776 1015.76 796.19 1016.84 799.138 1017.31C802.086 1017.93 805.965 1019.02 807.672 1019.79C811.552 1021.34 831.569 1027.86 833.897 1028.17C834.828 1028.33 836.379 1028.79 837.155 1029.41C838.397 1030.03 847.086 1032.52 850.345 1032.98C850.81 1032.98 851.897 1033.45 852.672 1033.91C853.603 1034.53 856.707 1035.47 859.655 1036.24C866.172 1037.64 866.017 1037.64 868.965 1038.72C873 1040.43 886.655 1044.47 891.465 1045.55C896.586 1046.79 896.741 1046.79 900 1048.19C901.241 1048.66 904.5 1049.59 906.983 1050.21C909.621 1050.83 911.948 1051.45 912.414 1051.6C912.879 1051.76 914.276 1052.22 915.517 1052.69C925.603 1056.1 928.552 1056.88 929.638 1056.1C930.414 1055.64 931.034 1055.95 931.034 1056.72C931.034 1057.66 933.362 1058.59 936.155 1059.05C938.793 1059.52 945 1061.07 949.655 1062.47C954.31 1064.02 959.431 1065.26 960.983 1065.26C962.379 1065.41 963.621 1065.88 963.621 1066.5C963.621 1067.43 970.293 1068.98 978.052 1069.76C979.448 1069.91 980.69 1070.69 980.69 1071.31C980.69 1071.93 981.931 1072.55 983.638 1072.55C985.19 1072.55 989.534 1073.64 993.103 1074.88C1000.09 1077.36 1001.02 1077.67 1014.83 1080.78C1019.48 1081.71 1024.14 1083.1 1025.07 1083.72C1026 1084.34 1029.88 1085.28 1033.6 1085.9C1037.33 1086.52 1041.21 1087.45 1041.98 1088.07C1042.91 1088.69 1046.33 1089.78 1049.74 1090.24C1053.16 1090.86 1059.05 1092.41 1062.93 1093.81C1066.81 1095.05 1071.47 1096.14 1073.48 1096.14C1075.34 1096.14 1077.36 1096.76 1077.67 1097.53C1078.14 1098.16 1082.33 1099.24 1086.98 1099.71C1091.79 1100.33 1095.98 1101.41 1096.29 1102.19C1096.76 1102.81 1100.48 1103.9 1104.52 1104.52C1108.55 1104.98 1112.59 1106.07 1113.36 1106.69C1115.07 1107.93 1126.55 1110.41 1128.72 1109.95C1129.34 1109.79 1130.74 1110.26 1131.83 1111.03C1133.69 1112.59 1145.02 1115.22 1147.34 1114.6C1147.97 1114.45 1149.36 1114.91 1150.45 1115.69C1152 1116.93 1161.62 1119.57 1166.12 1119.88C1167.05 1119.88 1168.45 1120.34 1169.22 1120.81C1170.62 1121.74 1179.78 1123.91 1184.74 1124.53C1185.67 1124.69 1187.38 1125.31 1188.62 1125.78C1192.19 1127.02 1203.05 1129.03 1205.38 1128.57C1206.31 1128.41 1207.24 1128.88 1207.24 1129.81C1207.24 1130.59 1210.19 1131.67 1213.91 1132.14C1221.05 1133.07 1223.84 1133.69 1227.41 1135.09C1229.43 1135.86 1239.05 1137.88 1243.71 1138.5C1244.64 1138.66 1246.34 1139.28 1247.59 1139.74C1249.6 1140.52 1259.07 1142.53 1263.88 1143.16C1264.81 1143.31 1266.52 1143.93 1267.76 1144.4C1269.78 1145.17 1279.24 1147.19 1284.05 1147.81C1284.98 1147.97 1286.69 1148.43 1287.93 1148.9C1289.17 1149.36 1295.84 1150.91 1302.67 1152.47C1309.5 1153.86 1316.79 1155.57 1318.97 1156.34C1324.24 1158.05 1324.09 1158.05 1326.72 1156.34ZM1353.1 1154.17C1353.1 1153.86 1352.02 1153.09 1350.62 1152.62C1349.38 1152.16 1348.76 1152.31 1349.22 1153.24C1350.16 1154.79 1353.1 1155.41 1353.1 1154.17ZM1344.88 1150.6C1344.26 1150.14 1343.33 1150.14 1342.71 1150.6C1342.24 1151.22 1342.71 1151.69 1343.79 1151.69C1344.88 1151.69 1345.34 1151.22 1344.88 1150.6ZM1337.59 1148.59C1337.59 1147.81 1336.97 1147.03 1336.03 1147.03C1335.26 1147.03 1334.48 1147.81 1334.48 1148.59C1334.48 1149.52 1335.26 1150.14 1336.03 1150.14C1336.97 1150.14 1337.59 1149.52 1337.59 1148.59ZM1329.36 1145.95C1328.74 1145.48 1327.81 1145.48 1327.19 1145.95C1326.72 1146.57 1327.19 1147.03 1328.28 1147.03C1329.36 1147.03 1329.83 1146.57 1329.36 1145.95ZM1322.84 1143.93C1323.31 1143.16 1322.69 1142.38 1321.45 1142.38C1320.05 1142.38 1318.97 1143.16 1318.97 1143.93C1318.97 1144.86 1319.59 1145.48 1320.36 1145.48C1321.29 1145.48 1322.38 1144.86 1322.84 1143.93ZM1431.47 1131.67C1429.14 1124.84 1427.28 1118.64 1427.28 1118.02C1427.28 1117.4 1426.5 1115.38 1425.57 1113.67C1424.64 1111.97 1423.71 1109.95 1423.71 1109.02C1423.55 1108.24 1423.09 1106.38 1422.78 1105.14C1419.52 1096.29 1416.72 1086.52 1416.72 1084.34C1416.72 1082.95 1416.1 1081.86 1415.48 1081.86C1414.86 1081.86 1414.24 1080.62 1414.09 1079.22C1414.09 1077.67 1412.84 1072.55 1411.29 1067.9C1409.9 1063.24 1408.34 1057.5 1407.88 1055.17C1407.41 1052.69 1406.48 1050.83 1405.55 1050.83C1404.78 1050.83 1404.31 1049.9 1404.47 1048.97C1404.93 1046.02 1401.36 1031.43 1395.62 1013.43C1394.53 1009.4 1393.45 1004.74 1393.45 1002.88C1393.45 1001.17 1392.83 999.621 1392.21 999.621C1391.59 999.621 1390.97 998.379 1390.81 996.983C1390.5 993.414 1388.79 985.5 1387.71 982.552C1387.24 981.31 1386.62 979.138 1386.31 977.896C1384.29 968.121 1383.83 965.948 1382.9 963.931C1382.43 962.69 1381.81 960.983 1381.81 960.052C1380.72 953.224 1378.86 945.776 1377.62 944.379C1376.84 943.293 1376.38 941.896 1376.53 941.276C1377.16 938.948 1374.52 924.517 1373.28 922.81C1372.66 922.034 1371.57 917.069 1370.95 912.103C1370.33 906.983 1369.24 901.862 1368.62 900.465C1367.84 899.069 1366.45 893.172 1365.52 887.121C1364.59 881.224 1362.88 870.362 1361.48 863.069C1357.91 842.431 1354.81 823.034 1353.1 810.31C1352.17 803.948 1351.24 796.655 1350.78 794.017C1350.16 789.362 1347.83 768.879 1345.81 749.017C1344.41 734.276 1344.41 619.914 1345.81 606.259C1348.6 580.034 1350.47 566.845 1353.1 552.724C1358.38 524.017 1359.47 518.431 1361.48 510.052C1362.72 504.931 1364.59 497.328 1365.52 492.983C1366.45 488.793 1367.84 484.138 1368.47 482.897C1369.24 481.5 1370.33 478.086 1371.1 475.138C1372.66 468.621 1372.5 468.776 1373.74 465.828C1374.21 464.586 1375.6 460.397 1377 456.517C1383.52 436.965 1389.26 421.138 1391.12 416.948C1395.62 407.017 1398.1 400.965 1398.1 399.879C1398.1 397.552 1424.02 347.431 1433.64 331.138L1438.45 322.914V206.224V89.6896L1430.53 97.2931C1426.19 101.638 1416.26 112.345 1408.5 121.345C1400.59 130.19 1392.52 139.345 1390.5 141.517C1375.14 157.81 1326.72 223.759 1326.72 228.259C1326.72 229.034 1326.26 229.965 1325.64 230.276C1324.24 230.741 1317.41 240.207 1317.41 241.448C1317.41 241.914 1314.47 247.034 1310.9 252.776C1298.79 272.483 1267.76 335.638 1267.76 340.603C1267.76 341.379 1265.74 346.19 1263.41 351.465C1260.93 356.741 1258.29 363.259 1257.67 365.741C1256.12 371.172 1256.12 371.328 1254.88 374.276C1251.16 383.431 1246.34 399.879 1246.97 400.965C1247.43 401.586 1246.97 402.207 1246.19 402.207C1245.26 402.207 1244.48 404.224 1244.48 406.707C1244.48 409.345 1243.86 411.672 1243.09 412.293C1242.16 412.759 1241.07 416.483 1240.45 420.517C1239.98 424.552 1238.9 428.897 1238.12 430.293C1237.34 431.69 1236.1 436.965 1235.17 441.931C1234.24 447.052 1232.38 456.672 1231.14 463.5C1229.74 470.328 1228.03 482.276 1227.26 489.879C1226.33 497.638 1224.93 507.414 1224 511.914C1222.14 520.914 1221.36 591.207 1223.07 611.69C1223.53 618.983 1224.78 630.776 1225.71 638.069C1226.79 645.362 1227.72 654.052 1228.03 657.465C1228.5 660.879 1229.74 670.034 1231.14 677.638C1232.38 685.396 1234.24 696.414 1235.17 702.31C1236.1 708.362 1237.66 714.414 1238.43 715.81C1239.21 717.362 1239.83 720.931 1239.83 723.879C1239.83 726.672 1240.29 729.621 1240.91 730.086C1241.38 730.707 1242 732.724 1242.31 734.741C1242.47 736.603 1243.71 742.345 1245.1 747.465C1248.36 759.414 1252.09 774.155 1253.33 779.741C1253.79 782.069 1254.88 783.931 1255.66 783.931C1256.43 783.931 1256.74 784.552 1256.28 785.328C1255.81 785.948 1256.28 788.896 1257.21 791.845C1258.14 794.793 1259.22 798.207 1259.69 799.448C1260.16 800.69 1260.62 802.862 1260.93 804.259C1261.24 805.655 1262.33 808.759 1263.26 811.241C1265.59 816.672 1265.43 816.207 1266.98 821.948C1267.6 824.586 1268.69 827.379 1269.47 828.155C1270.09 829.086 1270.55 830.017 1270.55 830.483C1270.55 833.121 1273.19 840.879 1274.59 842.741C1275.52 843.983 1276.14 845.379 1276.14 845.845C1275.52 848.638 1298.48 907.448 1301.9 911.948C1302.52 912.879 1303.6 915.207 1304.22 917.379C1306.4 924.828 1329.98 973.396 1343.17 998.069C1354.34 1018.71 1367.38 1041.98 1370.33 1046.17C1371.72 1048.34 1374.83 1053.62 1377.16 1057.81C1379.48 1062.16 1385.38 1071.47 1390.03 1078.76C1394.84 1086.05 1399.5 1093.34 1400.43 1095.05C1405.71 1104.52 1429.76 1139.59 1431.93 1140.83C1433.48 1141.6 1433.95 1142.38 1433.33 1142.38C1432.55 1142.38 1432.55 1143.16 1433.02 1144.09C1435.97 1148.59 1435.19 1142.84 1431.47 1131.67ZM1315.86 1142.69C1315.86 1140.67 1314 1139.28 1312.45 1140.21C1310.9 1141.14 1312.29 1143.93 1314.47 1143.93C1315.24 1143.93 1315.86 1143.31 1315.86 1142.69ZM1344.88 1141.29C1344.26 1140.83 1343.33 1140.83 1342.71 1141.29C1342.24 1141.91 1342.71 1142.38 1343.79 1142.38C1344.88 1142.38 1345.34 1141.91 1344.88 1141.29ZM1309.66 1139.43C1309.66 1138.66 1308.1 1137.72 1306.24 1137.26C1302.52 1136.48 1295.07 1133.84 1287.16 1130.74C1284.67 1129.66 1278.62 1127.64 1273.97 1126.09C1269.31 1124.53 1263.72 1122.52 1261.55 1121.43C1258.45 1119.88 1243.71 1114.6 1239.83 1113.67C1239.36 1113.52 1237.66 1112.9 1235.95 1112.12C1221.98 1106.38 1193.59 1095.83 1192.19 1095.83C1191.26 1095.83 1188.47 1094.74 1186.14 1093.5C1183.66 1092.26 1180.4 1091.17 1179 1091.17C1177.45 1091.17 1176.21 1090.55 1176.21 1089.78C1176.21 1089 1173.88 1087.76 1171.24 1087.14C1168.45 1086.67 1164.72 1085.12 1163.02 1084.03C1161.31 1082.95 1158.36 1081.71 1156.81 1081.4C1155.1 1081.09 1150.91 1079.69 1147.5 1078.14C1144.09 1076.59 1130.12 1070.84 1116.47 1065.26C1102.81 1059.67 1087.29 1053.16 1081.86 1050.67C1076.59 1048.19 1071.93 1046.17 1071.47 1046.17C1071.16 1046.17 1062.93 1042.6 1053.31 1038.26C1043.69 1033.91 1029.57 1027.55 1021.81 1023.98C962.69 997.603 873.155 951.983 820.086 921.259C786.259 901.707 774.155 894.569 752.586 881.224C644.121 814.034 535.5 730.086 454.655 651.103C407.638 605.328 388.086 584.069 337.81 525.569C320.276 505.086 270.31 439.603 244.552 402.983C226.241 377.069 159.517 276.207 148.81 258.207C147.414 255.879 139.345 242.845 130.81 229.19C122.431 215.534 106.293 189.776 95.2759 171.776C76.3448 141.207 55.3965 107.534 49.3448 98.2241C47.9483 96.0517 45.7759 92.4827 44.5345 90.3103C39.7241 81.4655 4.18966 26.5345 3.72414 27.1551C3.41379 27.4655 3.10345 91.0862 3.10345 168.517V309.414L18.931 328.19C38.3276 351.31 81 401.121 82.0862 402.207C82.5517 402.672 87.2069 407.948 92.3276 413.845C97.4483 419.897 104.431 427.81 108 431.69C111.414 435.569 118.707 443.638 124.138 449.534C155.638 484.293 170.379 499.965 204.828 534.569C253.707 584.069 311.897 638.069 346.034 665.845C351.621 670.345 357.517 675.155 359.224 676.707C383.741 698.276 446.276 744.983 495 778.034C538.759 807.672 628.138 863.069 632.172 863.069C632.638 863.069 636.052 865.241 639.776 867.724C643.655 870.362 647.845 872.379 649.241 872.379C650.638 872.379 651.724 872.845 651.724 873.621C651.724 874.241 653.276 875.483 655.293 876.414C657.155 877.345 667.862 883.241 679.19 889.293C690.362 895.345 700.293 900.31 701.069 900.31C702 900.31 702.931 900.776 703.241 901.552C703.552 902.172 707.586 904.655 712.241 907.138C752.586 927.931 810.465 956.328 831.724 965.483C838.086 968.276 848.328 972.776 854.224 975.569C869.121 982.396 901.862 996.207 904.655 996.828C905.897 997.138 907.293 997.603 907.759 998.069C908.224 998.534 911.638 1000.24 915.517 1001.79C919.397 1003.34 925.138 1005.98 928.397 1007.69C931.5 1009.4 934.138 1010.17 934.138 1009.71C934.138 1009.24 935.69 1009.86 937.552 1011.1C939.414 1012.5 942.672 1013.59 944.534 1013.59C946.552 1013.59 948.103 1014.21 948.103 1014.98C948.103 1015.76 949.965 1016.84 952.448 1017.62C954.776 1018.24 956.948 1018.86 957.414 1019.02C957.879 1019.17 960.672 1020.26 963.621 1021.66C981.155 1029.41 1020.26 1044.62 1022.43 1044.62C1023.36 1044.62 1026.31 1045.55 1029.1 1046.79C1042.91 1052.84 1050.67 1055.79 1053.62 1056.26C1054.09 1056.26 1055.79 1057.19 1057.5 1058.12C1061.22 1060.14 1078.76 1065.57 1080.47 1065.1C1081.09 1064.95 1081.55 1065.41 1081.55 1066.19C1081.55 1066.97 1083.1 1067.9 1085.12 1068.36C1086.98 1068.83 1092.26 1070.53 1096.91 1072.4C1101.57 1074.1 1105.76 1075.19 1106.53 1074.88C1107.16 1074.41 1107.93 1074.57 1108.24 1075.19C1108.86 1076.74 1117.71 1080 1145.95 1089.16C1157.9 1093.03 1169.84 1097.22 1172.64 1098.31C1175.28 1099.55 1178.53 1100.48 1179.78 1100.48C1181.02 1100.48 1184.12 1101.57 1186.45 1102.81C1188.93 1104.05 1192.03 1105.14 1193.43 1105.14C1194.83 1105.14 1197.93 1106.22 1200.57 1107.47C1203.05 1108.71 1206.47 1109.95 1208.17 1110.26C1209.72 1110.41 1211.9 1111.03 1212.67 1111.5C1214.07 1112.43 1222.6 1114.76 1224.31 1114.76C1224.78 1114.76 1225.86 1115.22 1226.64 1116C1227.57 1116.62 1230.67 1117.71 1233.62 1118.48C1240.14 1120.03 1239.98 1119.88 1242.93 1121.12C1248.05 1122.98 1259.53 1126.71 1263.88 1127.79C1269 1129.03 1269.16 1129.03 1272.41 1130.43C1276.14 1131.83 1283.9 1133.53 1285.29 1133.38C1285.91 1133.22 1286.38 1133.69 1286.38 1134.47C1286.38 1135.71 1298.02 1138.5 1300.81 1137.88C1301.43 1137.88 1301.9 1138.5 1301.9 1139.28C1301.9 1140.21 1303.6 1140.83 1305.78 1140.83C1307.95 1140.83 1309.66 1140.21 1309.66 1139.43ZM1339.14 1140.21C1339.14 1139.74 1338.36 1138.97 1337.28 1138.34C1336.19 1137.72 1336.03 1137.88 1336.66 1138.97C1337.74 1140.83 1339.14 1141.45 1339.14 1140.21ZM1333.4 1136.64C1332.31 1136.33 1330.45 1136.33 1329.52 1136.64C1328.43 1137.1 1329.21 1137.41 1331.38 1137.41C1333.55 1137.41 1334.33 1137.1 1333.4 1136.64ZM1326.72 1134.62C1326.72 1133.84 1326.1 1133.07 1325.17 1133.07C1324.4 1133.07 1323.62 1133.84 1323.62 1134.62C1323.62 1135.55 1324.4 1136.17 1325.17 1136.17C1326.1 1136.17 1326.72 1135.55 1326.72 1134.62ZM1320.52 1131.52C1319.28 1130.74 1317.88 1130.43 1317.57 1130.9C1317.1 1131.36 1317.72 1132.29 1318.97 1133.07C1320.21 1133.84 1321.6 1134.16 1321.91 1133.69C1322.38 1133.22 1321.76 1132.29 1320.52 1131.52ZM1389.26 1113.36C1313.22 1024.29 1245.41 919.552 1208.95 834.828C1204.6 824.896 1200.57 815.431 1199.79 813.879C1196.53 807.207 1193.28 799.293 1186.14 780.517C1184.74 776.793 1182.72 771.517 1181.48 768.724C1180.24 765.931 1179.31 762.672 1179.31 761.431C1179.31 760.19 1178.69 759.103 1178.07 759.103C1177.29 759.103 1176.67 758.172 1176.52 757.241C1175.74 751.034 1174.19 745.138 1173.26 745.138C1172.64 745.138 1172.17 743.896 1172.17 742.5C1172.02 740.172 1162.4 708.052 1159.45 700.138C1158.98 698.896 1158.52 697.19 1158.36 696.259C1157.74 691.914 1155.72 683.534 1154.48 680.741C1152.93 677.328 1150.45 665.534 1148.12 650.483C1147.19 644.896 1145.95 639 1145.17 637.293C1143.47 633.259 1141.91 624.103 1139.9 603.931C1139.43 599.276 1138.5 593.69 1137.88 591.517C1136.64 586.552 1136.33 582.828 1134.93 557.69C1134.31 546.362 1133.22 536.741 1132.6 536.276C1130.74 535.19 1130.9 487.086 1132.6 485.224C1133.38 484.293 1134.47 474.983 1135.09 464.276C1136.48 436.19 1136.79 432.776 1137.72 430.138C1138.34 428.897 1139.12 424.707 1139.59 420.828C1141.29 407.483 1148.59 372.724 1150.14 370.241C1150.76 369.465 1151.69 364.965 1152.31 360.621C1152.78 356.121 1153.86 352.552 1154.48 352.552C1155.26 352.552 1156.19 348.983 1156.81 344.793C1157.43 340.603 1158.52 337.034 1159.14 337.034C1159.91 337.034 1160.84 334.241 1161.47 330.828C1162.09 327.414 1163.02 324.31 1163.79 323.845C1164.41 323.379 1165.5 320.431 1166.12 317.328C1166.74 314.069 1167.67 310.81 1168.29 309.879C1168.91 309.103 1171.71 302.431 1174.5 295.138C1195.91 240.207 1232.84 176.741 1274.43 123.672C1310.43 78.0517 1366.45 22.0345 1421.84 -23.5862L1438.45 -37.3966V-112.5V-187.603L1435.03 -185.741C1433.02 -184.655 1431.16 -183.414 1430.69 -182.948C1430.22 -182.328 1427.9 -180.621 1425.26 -179.069C1418.43 -174.724 1374.67 -142.138 1357.76 -128.638C1317.26 -96.3621 1284.83 -67.5 1251.47 -33.5173C1214.07 4.3448 1201.34 18.7758 1174.34 53.0689C1150.6 83.3276 1111.66 142.603 1104.52 159.362C1103.43 162 1101.41 165.724 1099.86 167.741C1098.31 169.759 1097.53 171.931 1098 172.707C1098.47 173.483 1098.16 174.103 1097.38 174.103C1096.6 174.103 1095.36 175.655 1094.74 177.672C1093.34 182.017 1094.12 180.31 1086.67 195.828C1078.6 212.897 1075.03 220.655 1074.72 222.828C1074.57 223.759 1073.64 226.086 1072.55 227.948C1071.47 229.81 1070.53 232.603 1070.22 234.155C1069.91 235.707 1068.83 238.965 1067.9 241.293C1066.81 243.776 1066.03 247.034 1066.03 248.741C1066.03 250.293 1065.41 251.69 1064.64 251.69C1063.55 251.69 1061.38 258.828 1061.22 263.638C1061.07 264.414 1060.6 265.655 1059.83 266.431C1059.21 267.362 1058.12 270.465 1057.34 273.414C1055.79 279.931 1055.95 279.776 1054.71 282.724C1053.31 286.448 1051.76 294.052 1051.76 297.931C1051.76 299.793 1051.14 301.345 1050.52 301.345C1049.59 301.345 1048.03 307.707 1046.79 317.638C1046.64 319.345 1046.02 321.828 1045.55 323.069C1044.16 326.638 1042.45 338.741 1042.45 344.483C1042.45 347.121 1041.98 349.448 1041.36 349.448C1039.81 349.448 1037.48 370.552 1037.79 381.879C1037.95 386.534 1037.33 391.19 1036.55 392.276C1035 393.983 1035.31 483.052 1037.02 500.741C1039.03 523.552 1040.28 531.931 1041.36 533.483C1042.14 534.414 1042.6 537.207 1042.45 539.69C1042.29 544.81 1044.16 558.621 1045.55 562.034C1046.02 563.276 1046.48 565.759 1046.79 567.465C1047.41 573.672 1049.28 582.983 1050.05 585.31C1050.67 586.552 1051.14 588.414 1051.29 589.19C1051.91 594 1053.93 603.465 1054.71 605.483C1056.1 608.897 1056.1 608.741 1057.5 615.569C1058.12 618.983 1059.21 622.552 1059.83 623.328C1060.45 624.259 1061.53 627.672 1062.16 631.086C1062.78 634.5 1063.71 638.069 1064.48 638.845C1065.1 639.776 1066.19 643.19 1066.81 646.603C1067.43 650.017 1068.52 653.586 1069.14 654.362C1069.91 655.293 1070.38 656.534 1070.38 657.155C1070.38 659.017 1077.21 680.586 1078.45 682.293C1079.07 683.224 1080.47 686.638 1081.55 690.052C1082.64 693.465 1084.5 698.586 1085.74 701.224C1086.83 704.017 1087.91 706.81 1087.91 707.431C1087.91 708.207 1089.31 711.155 1090.86 714.103C1092.41 717.052 1095.21 723.569 1097.07 728.534C1098.93 733.345 1101.1 737.845 1101.88 738.31C1102.66 738.776 1103.28 740.172 1103.28 741.414C1103.28 748.241 1155.26 844.914 1161.16 849.259C1161.93 849.724 1162.4 850.81 1162.4 851.586C1162.24 853.448 1182.57 884.948 1199.33 908.845C1238.9 965.172 1278.62 1012.19 1333.71 1067.28C1371.41 1104.98 1404 1135.4 1405.4 1134C1405.86 1133.53 1398.57 1124.22 1389.26 1113.36ZM1346.43 1131.98C1345.81 1131.52 1344.88 1131.52 1344.26 1131.98C1343.79 1132.6 1344.26 1133.07 1345.34 1133.07C1346.43 1133.07 1346.9 1132.6 1346.43 1131.98ZM1315.86 1130.43C1315.86 1129.19 1303.29 1123.45 1300.81 1123.45C1300.19 1123.45 1299.41 1124.22 1299.1 1125C1298.79 1126.24 1307.17 1129.19 1310.12 1128.57C1310.74 1128.57 1311.21 1129.19 1311.21 1129.97C1311.21 1130.9 1312.29 1131.52 1313.53 1131.52C1314.78 1131.52 1315.86 1131.05 1315.86 1130.43ZM1340.07 1129.19C1338.36 1127.95 1336.34 1126.86 1335.41 1126.86C1334.64 1126.86 1335.26 1127.95 1336.97 1129.19C1338.52 1130.43 1340.69 1131.36 1341.47 1131.36C1342.4 1131.36 1341.62 1130.43 1340.07 1129.19ZM1377.93 1126.86C1376.69 1126.09 1374.98 1125.31 1374.05 1125.31C1373.28 1125.31 1373.59 1126.09 1374.83 1126.86C1376.07 1127.64 1377.93 1128.41 1378.71 1128.41C1379.64 1128.41 1379.17 1127.64 1377.93 1126.86ZM1330.91 1124.22C1330.29 1123.76 1329.83 1124.22 1329.83 1125.31C1329.83 1126.4 1330.29 1126.86 1330.91 1126.4C1331.38 1125.78 1331.38 1124.84 1330.91 1124.22ZM1298.02 1123.76C1298.48 1122.98 1294.91 1120.34 1289.95 1118.17C1284.98 1116 1276.6 1112.12 1271.17 1109.64C1265.74 1107.16 1261.09 1105.14 1260.62 1105.14C1260.16 1105.14 1254.57 1102.66 1248.21 1099.71C1199.17 1076.59 1163.33 1059.36 1159.14 1057.03C1156.97 1055.79 1154.79 1055.02 1154.17 1055.17C1153.71 1055.33 1152.31 1054.4 1151.38 1053.16C1150.29 1051.91 1148.12 1050.83 1146.57 1050.83C1145.02 1050.83 1143.47 1050.21 1143 1049.43C1142.38 1048.66 1138.81 1046.33 1134.62 1044.47C1114.76 1035 1037.17 991.552 1006.91 973.086C998.69 967.965 991.241 963.931 990.31 963.931C989.379 963.931 988.448 963.465 988.138 962.69C987.983 962.069 981.776 957.724 974.483 953.069C919.397 918.155 884.793 893.793 826.448 848.948C787.655 819.155 733.034 770.586 693.776 731.172C661.5 698.586 640.707 675.776 609.052 637.759C592.448 617.896 563.586 578.793 542.793 548.069C511.293 501.517 489.569 464.586 459.931 406.862C456.672 400.5 453.259 394.759 452.328 394.138C451.552 393.517 451.241 392.897 451.862 392.897C452.793 392.897 449.379 385.448 431.224 346.81C428.741 341.534 426.724 336.724 426.724 336.259C426.724 335.328 424.707 330.828 416.638 312.983C415.552 310.5 413.069 304.138 411.052 299.017C409.034 293.897 406.862 289.086 406.241 288.31C405.621 287.379 405 285.362 405 283.81C405 282.259 404.069 279 402.828 276.828C401.586 274.5 398.328 266.431 395.69 258.672C389.793 242.069 386.845 234.155 383.897 227.172C382.655 224.379 381.724 220.655 381.724 219.103C381.724 217.397 381.103 216 380.483 216C379.862 216 379.241 214.759 379.086 213.362C378.776 210.414 368.534 177.362 366.207 171.776C365.586 170.069 364.19 165.569 363.103 161.69C361.241 153.776 361.241 154.241 358.448 144.621C355.966 136.552 356.276 137.638 354.724 130.655C353.948 127.707 353.017 124.603 352.397 123.672C351.931 122.897 350.69 118.707 349.759 114.362C348.672 110.172 346.81 102.414 345.414 97.2931C344.017 92.1724 341.845 83.7931 340.448 78.6724C339.207 73.5517 337.19 65.1724 335.793 60.0517C334.552 54.931 333 48.1034 332.534 44.8448C332.069 41.7414 331.138 39.1034 330.517 39.1034C329.897 39.1034 329.431 38.1724 329.431 37.0862C329.586 34.9138 327.569 23.7414 326.328 20.4827C325.241 17.6896 324.621 15.2069 323.534 8.06894C322.914 5.12066 322.138 1.5517 321.672 0.310318C320.431 -2.79313 319.966 -5.12072 318.724 -13.9655C318.103 -18.1552 317.172 -21.4138 316.397 -21.4138C315.621 -21.4138 315.155 -22.6552 315.31 -24.0518C315.621 -27 313.759 -37.5517 312.362 -41.5862C311.121 -44.6897 310.655 -47.0173 309.414 -56.0173C308.793 -60.0517 307.862 -63.3104 307.086 -63.3104C306.466 -63.3104 305.845 -64.5517 306 -65.9483C306 -72.3104 303.517 -85.0345 302.276 -85.0345C301.5 -85.0345 301.034 -86.2759 301.19 -87.6724C301.655 -91.0862 299.793 -101.793 297.931 -105.983C297.155 -107.69 296.69 -110.172 296.69 -111.414C296.69 -112.655 295.914 -117.155 294.828 -121.5C293.431 -128.017 289.707 -145.241 288 -153.31C287.69 -154.552 287.069 -159.052 286.293 -163.397C285.672 -167.586 284.431 -172.086 283.5 -173.172C282.724 -174.259 282.259 -175.5 282.724 -175.966C283.19 -176.276 282.569 -180.621 281.328 -185.586C280.086 -190.397 278.845 -195.828 278.534 -197.535C278.224 -199.241 277.293 -203.741 276.362 -207.621C275.586 -211.5 273.724 -219.879 272.328 -226.241C270.931 -232.603 268.759 -242.069 267.672 -247.19C266.431 -252.31 265.034 -258.517 264.569 -261.155C263.948 -263.638 263.172 -266.897 262.552 -268.138C261.621 -270.621 261.31 -272.483 259.759 -283.19C259.293 -286.914 258.362 -289.862 257.741 -289.862C257.121 -289.862 256.655 -291.103 256.5 -292.5C255.879 -299.793 254.017 -308.483 252.931 -308.483C252.31 -308.483 251.845 -309.414 251.845 -310.345C252 -312.672 249.983 -323.845 248.741 -327.103C248.276 -328.345 247.655 -330.517 247.345 -331.759C245.328 -341.379 244.862 -343.707 244.086 -345.724C242.845 -348.828 242.224 -351.466 241.138 -358.603C240.672 -361.707 239.586 -364.345 238.655 -364.345C237.879 -364.345 237.569 -364.966 238.034 -365.741C238.5 -366.362 238.19 -369 237.414 -371.483C236.638 -373.966 234.931 -380.483 233.379 -386.069C231.983 -391.655 230.431 -397.241 229.966 -398.483C229.5 -399.724 229.034 -401.586 228.724 -402.672C227.638 -408.103 221.276 -428.897 220.345 -430.293C219.724 -431.069 218.638 -434.638 218.017 -438.052C217.397 -441.466 216.466 -444.879 215.69 -445.81C215.069 -446.586 213.983 -450.155 213.362 -453.569C212.741 -456.983 211.81 -460.397 211.345 -461.328C210.724 -462.103 210.259 -463.19 210.103 -463.655C209.948 -464.121 209.328 -466.759 208.707 -469.552C208.086 -472.345 206.845 -474.983 206.224 -475.448C205.448 -475.914 204.828 -477.31 204.828 -478.707C204.828 -479.948 203.897 -483.207 202.655 -485.845C201.569 -488.638 199.086 -496.086 197.069 -502.448C195.052 -508.81 192.879 -514.707 192.259 -515.638C191.483 -516.414 190.862 -518.431 190.862 -519.983C190.862 -521.534 189.931 -524.793 188.69 -526.966C187.448 -529.293 184.19 -537.362 181.397 -545.121C178.603 -552.724 175.655 -559.552 174.879 -560.017C174.103 -560.483 173.638 -561.414 173.638 -562.034C174.103 -564.362 171.31 -572.276 166.81 -582.362C164.017 -588.259 158.431 -600.672 154.552 -609.983C150.672 -619.138 141.052 -639.155 133.293 -654.517L119.328 -682.448H60.3621H1.55172V-472.034V-261.621L20.0172 -230.276C30.1034 -213.207 39.569 -196.914 40.9655 -194.431C42.3621 -191.793 44.2241 -188.69 45 -187.448C46.8621 -184.655 58.0345 -164.172 67.6552 -145.862C71.6897 -138.414 75.569 -131.897 76.6552 -131.276C77.5862 -130.655 77.8965 -130.035 77.2759 -130.035C76.6552 -130.035 84.7241 -112.81 95.431 -91.5517C114.828 -52.9138 144.621 9.62066 146.638 15.6724C147.103 17.5345 148.19 18.931 148.81 18.931C149.431 18.931 150.052 19.862 150.052 20.9482C150.052 21.8793 153.621 30.2586 157.966 39.5689C162.466 48.7241 166.034 56.4827 166.034 56.7931C166.034 57.1034 169.138 63.931 172.862 71.8448C179.534 86.2758 185.586 99.3103 196.759 123.672C199.862 130.5 202.966 136.552 203.741 137.017C204.517 137.483 204.983 138.414 204.983 139.034C204.672 140.741 209.948 153 217.552 168.207C221.586 176.431 225 183.569 225 184.034C225 185.431 274.966 286.448 276.052 287.379C276.517 287.845 280.707 295.448 285.052 304.448C294.052 322.603 303.052 339.052 317.017 363.414C322.138 372.414 328.345 383.276 330.828 387.465C333.31 391.81 335.948 396.31 336.724 397.552C337.5 398.793 342.931 407.638 348.517 416.948C364.345 443.017 391.345 483.207 407.328 504.621C450.931 562.965 470.638 587.172 506.638 627.207C557.069 683.224 634.81 755.379 694.397 801.465C702.931 807.983 710.69 814.034 711.621 814.81C712.707 815.741 720.621 821.638 729.465 828C738.31 834.517 749.793 842.741 754.914 846.465C764.379 853.448 804.259 880.138 829.397 896.431C859.19 915.828 938.328 962.379 941.276 962.379C941.897 962.379 943.603 963.31 944.845 964.396C949.5 968.431 1050.83 1020.72 1059.05 1023.36C1060.76 1023.83 1063.24 1025.07 1064.48 1026C1066.5 1027.4 1096.6 1041.52 1108.71 1046.95C1111.34 1048.03 1118.02 1051.14 1123.91 1053.78C1129.66 1056.41 1134.78 1058.59 1135.55 1058.59C1136.17 1058.59 1140.83 1060.6 1145.95 1063.09C1158.83 1069.45 1171.55 1075.03 1176.21 1076.43C1178.38 1077.05 1180.86 1078.14 1181.64 1078.91C1183.81 1080.47 1279.4 1118.79 1282.97 1119.41C1284.36 1119.72 1285.91 1120.34 1286.38 1120.81C1286.84 1121.28 1289.33 1122.52 1291.81 1123.45C1294.45 1124.38 1296.62 1125.16 1296.78 1125.16C1296.93 1125.31 1297.55 1124.69 1298.02 1123.76ZM1326.26 1122.67C1325.64 1122.21 1324.71 1122.21 1324.09 1122.67C1323.62 1123.29 1324.09 1123.76 1325.17 1123.76C1326.26 1123.76 1326.72 1123.29 1326.26 1122.67ZM1351.09 1122.67C1350.47 1122.21 1349.53 1122.21 1348.91 1122.67C1348.45 1123.29 1348.91 1123.76 1350 1123.76C1351.09 1123.76 1351.55 1123.29 1351.09 1122.67ZM1371.41 1122.36C1371.26 1121.74 1358.84 1111.19 1344.1 1099.09C1314.31 1074.57 1310.59 1071.31 1278.62 1041.36C1197.78 965.483 1130.59 884.017 1076.9 796.345C1054.09 759.103 1024.91 702.31 1012.34 670.81C1008.31 660.879 1004.74 652.19 1004.28 651.259C1003.66 650.483 1003.19 648.931 1003.03 647.845C1002.88 646.759 1001.64 643.655 1000.24 641.017C998.845 638.224 997.759 635.431 997.759 634.5C997.759 633.724 996.828 630.931 995.586 628.293C994.345 625.5 993.103 621.621 992.638 619.448C992.172 617.276 990 610.293 987.983 603.931C985.81 597.569 983.017 588.414 981.776 583.759C980.534 579.103 978.362 571.345 976.965 566.534C975.569 561.724 974.483 556.448 974.483 554.741C974.483 553.034 974.017 551.172 973.397 550.552C972.31 549.465 972 548.069 970.448 537.983C969.983 534.569 969.207 530.69 968.741 529.448C967.655 526.81 967.5 525.879 965.948 514.707C965.328 510.517 964.552 505.862 963.931 504.621C963 502.138 962.845 501.052 961.138 482.897C960.672 476.534 959.586 470.638 958.965 469.707C957.259 467.534 956.793 451.862 956.793 397.552C956.793 341.69 957.259 326.172 958.81 326.172C960.052 326.172 962.224 307.086 962.224 297.931C962.224 295.448 962.845 293.586 963.465 293.586C964.241 293.586 965.172 289.552 965.793 284.741C966.879 274.655 967.345 272.172 968.586 268.759C969.517 266.741 970.138 263.483 971.845 252.931C972.155 251.379 972.776 249.672 973.397 249.207C974.017 248.586 974.483 246.569 974.483 244.862C974.483 243.155 975.414 238.965 976.655 235.397C977.897 231.983 980.069 225 981.465 219.879C983.017 214.759 985.19 208.397 986.431 205.603C987.517 202.965 988.448 200.328 988.448 199.707C988.448 199.086 990.931 192.103 994.034 184.345C1023.98 109.552 1062 45.4655 1116.16 -21.8793C1180.4 -101.483 1275.05 -187.293 1370.17 -251.845C1379.95 -258.517 1389.26 -265.034 1390.66 -266.121C1392.05 -267.362 1395.31 -269.534 1397.79 -270.931C1400.28 -272.328 1410.52 -278.845 1420.29 -285.207L1438.29 -296.845L1438.45 -374.897V-453.103L1433.48 -450C1430.69 -448.293 1417.5 -440.534 1404.31 -432.466C1391.12 -424.552 1374.05 -414 1366.6 -409.034C1359 -404.069 1352.64 -400.034 1352.33 -400.034C1351.24 -400.034 1306.4 -369.466 1285.6 -354.569C1237.5 -319.966 1189.55 -281.638 1149.83 -245.793C1116.16 -215.379 1055.33 -150.362 1030.66 -118.397C1025.38 -111.569 1019.64 -104.276 1017.78 -102.103C1007.84 -90 969.052 -32.5862 963.621 -21.8793C962.379 -19.5518 959.897 -15.3621 958.034 -12.8793C950.431 -2.48279 921.414 55.0862 912.259 77.8965C909.621 84.2586 905.586 94.5 903.103 100.397C898.448 111.724 891.465 132.672 886.81 148.5C885.259 153.621 883.397 159.517 882.621 161.534C881.845 163.707 880.603 168.207 879.828 171.621C879.052 175.19 877.655 181.086 876.724 184.965C874.862 191.793 873.931 196.759 873 202.81C872.69 204.517 872.069 207 871.448 208.241C870.828 209.638 870.207 213.052 869.741 216C869.431 218.948 868.345 225.465 867.414 230.431C866.483 235.397 865.552 242.379 865.086 245.948C864.776 249.517 863.69 259.138 862.914 267.207C860.897 284.586 860.897 375.828 862.759 393.672C866.638 430.759 867.569 437.431 869.121 441.465C870.207 443.793 870.672 446.121 870.207 446.431C869.741 446.897 870.362 452.017 871.603 457.759C872.845 463.5 874.552 472.034 875.328 476.69C876.103 481.345 877.5 486.465 878.276 487.862C879.207 489.414 879.828 492.207 879.828 494.224C879.828 496.241 880.293 498.414 880.914 499.034C881.534 499.5 882.155 501.207 882.31 502.759C882.621 506.483 885.879 520.138 887.431 524.793C888.052 526.965 889.914 532.862 891.465 537.983C892.862 543.103 895.034 549.776 896.121 552.724C897.207 555.672 899.224 562.034 900.776 566.69C902.328 571.345 904.345 577.397 905.431 579.879C906.517 582.517 908.379 587.328 909.776 590.741C915.052 604.397 922.19 621.621 923.276 623.948C924.052 625.345 927.31 632.328 930.569 639.621C933.828 646.914 936.931 653.121 937.552 653.276C938.328 653.586 938.793 654.828 938.793 655.914C938.793 659.017 959.897 699.672 969.052 714.103C975.259 723.879 992.328 751.5 995.121 756.465C996.828 759.259 999.31 762.828 1001.02 764.69C1002.57 766.396 1003.97 768.414 1003.97 769.034C1003.97 772.293 1045.55 827.69 1070.84 858.103C1098.47 891.31 1115.84 910.241 1152.31 946.396C1211.12 1004.74 1269.47 1053.16 1346.43 1107.47C1368.16 1122.83 1372.66 1125.47 1371.41 1122.36ZM1322.07 1120.66C1322.07 1119.88 1321.45 1119.1 1320.52 1119.1C1319.74 1119.1 1318.97 1119.88 1318.97 1120.66C1318.97 1121.59 1319.74 1122.21 1320.52 1122.21C1321.45 1122.21 1322.07 1121.59 1322.07 1120.66ZM1344.26 1118.33C1342.71 1117.24 1341 1116.62 1340.38 1116.93C1339.6 1117.4 1339.14 1116.93 1339.14 1116.16C1339.14 1115.22 1338.52 1114.45 1337.59 1114.45C1334.64 1114.45 1336.03 1116.78 1340.38 1119.26C1345.19 1122.05 1348.45 1121.43 1344.26 1118.33ZM1315.71 1116.93C1314.47 1115.69 1304.53 1110.1 1293.36 1104.36C1275.05 1094.74 1264.97 1089.31 1242.16 1076.43C1200.57 1053 1128.1 1007.07 1091.64 981.155C1083.1 975.103 1075.03 969.672 1073.79 969.052C1072.55 968.431 1071.16 967.5 1070.69 967.034C1070.22 966.414 1056.88 956.172 1041.05 944.224C914.586 849.414 801.931 729.31 730.707 613.241C719.379 594.776 699.828 560.483 699.828 558.931C699.828 558.31 699.362 557.379 698.741 557.069C697.19 556.448 667.241 494.845 662.586 482.897C660.724 478.241 658.707 473.741 658.086 472.81C657.465 472.034 655.293 466.759 653.276 461.172C651.259 455.586 649.086 450.465 648.31 449.69C647.69 448.759 647.069 446.741 647.069 444.879C647.069 443.017 645.983 440.224 644.741 438.517C643.5 436.965 642.414 434.793 642.414 433.707C642.414 432.776 641.638 429.983 640.552 427.5C639.621 425.172 638.69 422.069 638.379 420.672C638.069 419.276 635.741 412.603 633.103 405.931C630.621 399.259 628.448 392.741 628.448 391.345C628.448 390.103 627.362 387 626.121 384.517C624.879 382.19 623.793 378.931 623.793 377.534C623.793 375.983 623.328 374.276 622.707 373.655C622.086 373.034 621.465 371.638 621.465 370.707C621.31 368.534 619.293 360.621 618.052 357.207C617.586 355.965 616.965 353.793 616.655 352.552C616.5 351.31 615.103 345.724 613.707 340.138C612.31 334.552 610.914 328.034 610.448 325.397C609.983 322.914 609.207 319.655 608.741 318.414C607.345 314.845 606.724 312.207 605.638 304.138C605.172 299.948 604.241 296.69 603.621 296.69C603 296.69 602.379 295.138 602.379 293.276C602.224 287.845 600.362 274.5 599.276 271.862C598.034 268.759 597.724 266.741 596.483 253.707C595.862 247.5 594.776 242.379 594 242.379C593.379 242.379 592.759 240.517 592.759 238.19C593.069 229.19 590.741 202.81 589.5 201.259C587.793 199.086 587.483 182.948 587.483 113.586C587.483 42.6724 587.793 25.1379 589.5 25.1379C590.741 25.1379 593.069 -1.70692 592.914 -13.1897C592.759 -15.9828 593.379 -18.3104 594.155 -18.3104C595.241 -18.3104 596.017 -23.5862 598.034 -46.2414C598.19 -48.4138 598.81 -51.2069 599.276 -52.4483C599.897 -53.6897 600.672 -58.1897 601.293 -62.5345C602.845 -73.7069 603 -74.638 603.931 -77.2759C604.862 -79.2931 605.483 -83.4828 607.5 -96.6724C607.655 -98.3793 608.276 -100.862 608.741 -102.103C609.207 -103.345 609.983 -107.224 610.448 -110.638C611.534 -117.776 612.155 -120.569 613.397 -123.828C614.172 -125.845 614.638 -128.172 616.655 -137.793C616.965 -139.035 617.586 -141.207 618.052 -142.448C619.293 -145.707 621.31 -156.879 621.155 -159.207C621.155 -160.138 621.621 -161.069 622.241 -161.069C622.862 -161.069 623.793 -163.397 624.259 -166.035C625.345 -172.862 628.448 -184.5 630 -187.603C630.776 -189 631.862 -192.879 632.483 -196.138C632.948 -199.552 634.034 -202.81 634.655 -203.741C635.276 -204.517 636.362 -207.776 636.983 -210.724C637.448 -213.672 639 -218.328 640.241 -220.966C641.328 -223.603 642.569 -227.172 642.879 -228.724C643.19 -230.431 644.276 -233.379 645.052 -235.552C645.983 -237.724 648.621 -245.017 650.948 -251.845C653.276 -258.672 656.069 -266.276 657.155 -268.914C658.241 -271.397 659.638 -275.276 660.259 -277.448C660.724 -279.621 661.81 -282.724 662.586 -284.431C663.362 -286.138 666.155 -293.121 668.793 -299.948C671.431 -306.776 674.379 -313.603 675.155 -315.155C675.931 -316.707 679.81 -325.397 683.69 -334.552C695.328 -361.862 711.621 -395.379 728.379 -426.414C732.259 -433.707 736.759 -442.086 738.31 -445.034C741.569 -451.086 750.259 -466.293 752.586 -469.862C753.362 -471.103 756.931 -476.69 760.345 -482.276C800.534 -546.672 837.776 -596.793 884.328 -648.931C893.328 -659.017 903.879 -670.655 907.448 -674.845L914.276 -682.448H691.448C514.397 -682.448 468.621 -681.983 468.465 -680.431C468.31 -679.5 468 -676.086 467.69 -673.138C467.379 -670.19 466.448 -661.81 465.517 -654.517C464.431 -647.224 463.5 -638.224 463.345 -634.345C463.19 -630.466 462.569 -626.276 462.103 -625.034C461.483 -623.793 460.707 -617.121 460.086 -610.293C458.534 -591.517 457.914 -585.31 456.052 -569.172C455.121 -561.103 454.034 -550.862 453.724 -546.672C453.414 -542.328 452.328 -531.931 451.397 -523.397C450.465 -514.862 449.379 -504.31 449.069 -500.121C448.759 -495.776 447.672 -484.603 446.741 -475.293C445.81 -465.828 444.879 -454.034 444.569 -448.914C444.259 -443.793 443.172 -430.914 442.086 -420.207C441.155 -409.5 440.224 -396.31 440.069 -390.724C439.914 -385.138 439.293 -377.534 438.672 -373.655C438.052 -369.776 437.121 -357.517 436.655 -346.5C436.034 -335.328 435.259 -320.741 434.948 -313.914C433.397 -285.362 432.31 -106.138 433.397 -89.6897C434.172 -79.9138 434.948 -65.4828 435.259 -57.8793C436.345 -32.7414 437.586 -14.5862 438.672 -7.4483C439.293 -3.56899 439.914 2.6379 440.069 6.51721C440.224 10.3965 441.155 20.1724 442.086 28.2414C443.017 36.3103 444.103 46.0862 444.414 49.9655C444.879 53.8448 445.965 61.9138 446.741 67.8103C447.672 73.862 448.759 81.1551 449.069 84.1034C449.534 87.0517 450.465 94.5 451.397 100.397C452.328 106.448 453.259 113.431 453.724 115.914C455.897 130.655 456.517 134.69 457.448 136.862C457.914 138.103 458.534 140.586 458.69 142.293C459 144 459.621 148.965 460.241 153.155C460.862 157.5 461.948 161.69 462.724 162.776C463.5 163.862 463.81 165.414 463.345 166.19C462.414 167.431 464.431 178.138 466.759 184.965C467.224 186.207 467.534 188.379 467.69 189.621C468.155 193.5 470.328 204.207 471.414 206.69C471.879 207.931 472.5 209.793 472.5 210.569C473.431 216.155 475.293 224.845 476.069 226.862C476.534 228.103 477.155 229.965 477.155 230.741C477.931 236.172 480.103 245.017 480.879 246.259C481.965 248.121 481.81 247.5 483.362 256.034C483.983 259.603 485.224 262.552 486 262.552C486.776 262.552 487.241 263.483 487.086 264.569C486.621 266.741 488.483 274.345 490.345 278.845C491.121 280.552 492.207 284.431 492.828 287.379C493.293 290.328 494.379 293.741 495.155 295.138C495.776 296.379 498.569 304.759 501.362 313.759C504 322.759 506.948 331.759 507.879 333.931C508.655 336.103 509.586 338.586 509.897 339.362C511.448 345.259 517.19 359.845 518.431 361.086C519.207 361.862 519.828 363.724 519.828 365.121C519.828 367.603 527.121 385.914 531.621 394.914C532.862 397.397 533.793 400.034 533.793 400.81C533.793 401.586 535.81 406.552 538.293 411.983C540.776 417.259 544.345 425.172 546.207 429.362C552.259 443.017 562.345 463.5 563.431 464.276C563.897 464.741 564.983 466.759 565.603 468.931C566.224 471.103 567.155 473.121 567.776 473.586C568.241 474.052 571.19 479.328 573.983 485.224C587.483 512.534 616.965 561.569 640.552 596.172C702.931 687.569 781.603 772.448 879.052 853.603C900.155 871.138 935.224 898.138 965.172 919.862C982.552 932.586 1027.09 962.379 1028.48 962.379C1029.41 962.379 1030.34 962.845 1030.66 963.621C1031.43 965.328 1065.26 987.052 1089.31 1001.33C1095.67 1005.05 1102.34 1008.93 1104.05 1010.02C1105.76 1011.1 1110.26 1013.43 1114.14 1015.45C1118.02 1017.47 1121.43 1019.48 1121.9 1019.95C1122.83 1021.03 1140.21 1030.97 1156.81 1040.12C1163.64 1043.69 1173.41 1049.12 1178.53 1051.91C1206.47 1067.28 1305 1115.53 1306.4 1114.6C1306.71 1114.29 1307.48 1114.76 1307.95 1115.53C1309.19 1117.24 1316.48 1120.5 1317.26 1119.72C1317.72 1119.26 1316.95 1118.02 1315.71 1116.93ZM1334.48 1114.14C1334.48 1113.05 1328.9 1108.71 1322.22 1104.36C1309.97 1096.6 1251.31 1056.57 1238.59 1047.26C1147.5 979.914 1064.79 903.724 1001.02 828.155C993.103 818.845 985.034 809.379 983.172 807.207C964.552 785.328 909 705.879 896.121 682.293C895.19 680.586 892.552 676.086 890.379 672.207C888.207 668.328 884.328 661.345 881.845 656.69C874.707 643.345 873 640.396 871.603 639.465C870.828 639 870.362 637.914 870.362 637.138C870.517 634.5 868.81 630.31 867.414 630.31C866.793 630.31 865.707 628.603 865.241 626.431C864.621 624.259 860.586 614.638 855.931 605.017C851.431 595.552 846.465 584.534 844.759 580.655C843.207 576.776 841.5 573.362 841.034 572.897C840.569 572.431 840.103 570.879 839.793 569.328C839.483 567.776 837 560.948 834.052 554.121C831.259 547.293 828.31 539.69 827.845 537.052C827.224 534.569 826.138 532.241 825.362 531.776C824.586 531.155 823.965 529.448 823.965 527.897C823.965 526.19 823.034 522.621 821.793 519.828C819.776 514.862 818.224 510.052 812.328 489.879C810.776 484.759 809.224 479.483 808.759 478.241C808.293 477 807.828 475.603 807.672 475.138C807.517 474.672 806.897 471.569 806.121 468.155C805.5 464.741 804.259 461.017 803.328 460.086C802.552 459 802.241 458.069 802.552 458.069C803.017 458.069 802.397 454.034 801.155 449.224C798.362 438.207 797.897 435.879 796.655 427.034C796.034 423.155 795.103 419.431 794.483 418.5C793.862 417.724 793.241 415.241 793.241 413.069C793.086 410.897 792.31 405.31 791.379 400.655C785.328 370.862 782.069 328.655 781.914 280.397C781.914 236.017 785.017 199.086 791.379 167.897C792.31 163.241 793.086 157.5 793.086 155.172C793.086 152.845 793.707 150.517 794.483 150.052C795.103 149.586 796.19 144.931 796.81 139.655C797.431 134.224 798.517 129.259 799.138 128.328C800.069 127.086 802.086 119.172 803.017 112.81C803.017 112.034 803.638 110.172 804.103 108.931C804.879 107.069 807.052 99.6207 807.517 96.5172C807.672 96.0517 808.138 95.1207 808.603 94.1896C809.379 92.9482 810.776 87.362 812.172 79.4482C812.328 78.9827 812.793 78.0517 813.259 77.1207C813.879 76.3448 814.81 73.5517 815.431 70.9138C816.207 68.431 816.828 65.9482 816.983 65.4827C818.069 62.5345 819.931 57.7241 821.793 53.3793C823.034 50.5862 823.965 47.3276 823.965 46.0862C823.965 44.6896 824.586 42.5172 825.517 40.9655C826.293 39.5689 830.638 29.3276 834.983 18.1551C842.586 -0.931062 846.776 -10.3966 860.586 -39.2586C863.845 -46.0862 866.328 -52.138 866.172 -52.7586C866.017 -53.5345 866.483 -54 867.259 -54C868.034 -54 868.965 -55.2414 869.431 -56.638C869.897 -58.1897 873.155 -64.2414 876.569 -70.2931C879.983 -76.1897 884.793 -84.569 887.121 -88.9138C889.448 -93.1035 892.086 -97.9138 893.017 -99.3104C893.793 -100.707 896.586 -105.207 899.069 -109.397C916.759 -138.414 948.879 -183.569 975.103 -216.155C1020.88 -272.948 1087.45 -338.897 1152.16 -391.81C1178.07 -412.914 1184.59 -418.034 1206.78 -434.638C1238.9 -458.69 1302.05 -502.448 1304.53 -502.448C1305.47 -502.448 1319.43 -512.069 1320.52 -513.466C1320.98 -513.931 1322.07 -514.707 1322.84 -515.017C1323.78 -515.328 1340.69 -525.414 1360.55 -537.362C1380.26 -549.31 1399.81 -560.948 1403.84 -563.121C1408.03 -565.293 1415.79 -569.793 1421.38 -572.897C1426.97 -576 1433.02 -579.414 1435.03 -580.345L1438.45 -582.052V-632.328V-682.448H1332H1225.55L1199.02 -664.448C1158.98 -637.293 1092.1 -586.707 1073.79 -569.793C1071.62 -567.776 1061.22 -558.776 1050.83 -549.621C988.914 -496.086 923.276 -425.172 875.017 -360.466C853.759 -331.759 830.017 -297 817.914 -276.672C814.345 -270.621 810.776 -264.724 810 -263.483C798.517 -244.707 794.017 -236.638 777.103 -204.517C775.552 -201.569 774.31 -198.31 774.31 -197.224C774.31 -196.293 773.845 -195.207 773.224 -194.897C771.517 -194.121 757.241 -164.793 757.241 -162C757.241 -160.759 756.621 -159.362 756 -158.897C755.224 -158.431 751.965 -151.603 748.862 -143.69C745.603 -135.776 742.034 -127.397 740.793 -125.069C739.552 -122.897 738.621 -119.483 738.621 -117.776C738.621 -115.914 738 -114.517 737.224 -114.517C736.448 -114.517 735.207 -111.879 734.276 -108.621C733.345 -105.517 729.31 -93.7242 725.431 -82.7069C719.379 -65.7931 714.259 -50.2759 714.103 -48.8793C713.948 -48.7242 713.638 -47.4828 713.172 -46.2414C709.138 -33.6724 705.879 -20.638 705.724 -17.2242C705.724 -16.4483 705.259 -15.2069 704.483 -14.4311C703.552 -13.1897 701.534 -5.27589 700.603 1.08618C700.603 2.01721 699.983 3.72411 699.517 4.96549C697.965 8.53446 696.103 19.3965 696.569 22.5C696.724 23.8965 696.259 25.1379 695.483 25.1379C694.086 25.1379 691.603 38.3276 691.914 44.8448C691.914 46.862 691.448 48.4138 690.672 48.4138C689.431 48.4138 687.103 64.0862 687.259 72.1551C687.259 74.4827 686.793 76.3448 686.017 76.3448C684.621 76.3448 682.293 96.8276 682.603 106.138C682.759 109.397 682.293 112.034 681.517 112.034C679.345 112.034 677.948 145.707 677.948 199.707C677.948 251.69 679.19 280.707 681.362 283.655C682.138 284.586 682.759 287.845 682.603 290.638C682.293 298.397 684.621 317.328 686.017 319.19C686.638 320.121 687.259 322.293 687.259 323.845C687.259 331.293 689.586 346.345 690.672 346.345C691.448 346.345 692.069 347.897 692.069 349.914C691.914 357.207 694.086 369.621 695.483 369.621C696.259 369.621 696.724 370.552 696.569 371.638C696.103 373.81 698.121 384.828 699.517 388.241C699.983 389.483 700.603 391.655 700.759 392.897C702.31 400.81 703.241 404.845 704.017 406.862C705.569 410.897 705.879 412.138 707.431 419.431C708.207 423.31 709.603 428.121 710.534 430.293C714.103 439.138 714.259 439.914 715.965 447.207C716.741 450.155 717.672 453.414 718.138 454.19C718.759 455.121 719.224 456.517 719.534 457.293C720.155 460.552 726.362 477.621 727.759 480.103C728.69 481.655 729.31 483.672 729.31 484.603C729.31 485.534 730.241 488.483 731.483 491.121C732.724 493.914 736.293 502.603 739.241 510.517C742.345 518.431 745.603 526.19 746.379 527.586C747.155 528.983 750.414 536.121 753.517 543.414C761.431 561.103 780.362 598.19 791.224 616.81C796.034 625.034 800.69 633.103 801.465 634.655C835.759 694.241 894.259 769.345 952.603 829.241C1014.98 893.328 1061.53 934.138 1132.14 986.586C1159.76 1007.07 1221.67 1049.28 1224 1049.28C1224.93 1049.28 1225.86 1049.9 1226.17 1050.67C1226.48 1051.45 1229.9 1054.09 1233.93 1056.41C1237.97 1058.9 1250.69 1066.66 1262.17 1073.79C1273.5 1080.78 1283.59 1086.52 1284.52 1086.52C1285.45 1086.52 1286.38 1087.14 1286.69 1087.76C1287.31 1089.47 1322.84 1109.79 1325.02 1109.79C1325.95 1109.79 1326.72 1110.41 1326.72 1111.03C1326.72 1112.12 1331.38 1115.22 1334.17 1115.84C1334.33 1116 1334.48 1115.07 1334.48 1114.14Z" fill="#FFCA27"/>
<path d="M1205.69 1175.74C1200.1 1174.66 1190.02 1173.72 1183.34 1173.57C1176.52 1173.41 1159.45 1172.33 1145.33 1171.24C1131.21 1170 1104.21 1167.83 1085.43 1166.43C1066.66 1165.03 1043.69 1163.17 1034.22 1162.4C1024.91 1161.47 1008.16 1160.22 996.983 1159.29C985.965 1158.52 974.328 1157.59 971.379 1157.28C968.431 1156.81 956.172 1155.72 944.224 1154.64C932.276 1153.71 921.103 1152.78 919.397 1152.47C917.69 1152.31 909.31 1151.69 900.776 1151.07C892.241 1150.45 879.983 1149.36 873.621 1148.59C867.259 1147.66 852.983 1146.26 841.81 1145.48C830.793 1144.55 811.862 1142.84 799.914 1141.6C787.965 1140.52 767.017 1138.34 753.362 1137.1C676.086 1129.66 604.397 1122.21 527.897 1113.67C516.259 1112.28 499.655 1110.57 491.121 1109.79C482.586 1108.86 471.103 1107.62 465.517 1106.84C459.931 1105.91 450.931 1104.83 445.345 1104.36C439.759 1103.9 429.983 1102.81 423.621 1102.03C417.259 1101.26 402.207 1099.4 390.259 1098.16C368.069 1095.52 346.655 1093.03 311.121 1088.84C300.103 1087.6 281.483 1085.43 270 1084.19C258.517 1082.79 243.466 1080.93 236.638 1080.16C229.81 1079.22 218.638 1077.83 211.81 1077.05C204.983 1076.43 190.397 1074.72 179.224 1073.33C168.207 1072.09 150.362 1069.91 139.655 1068.67C128.948 1067.43 111.259 1065.41 100.086 1064.17C89.069 1062.78 70.4483 1060.6 58.9655 1059.36C47.4828 1057.97 32.7414 1056.26 26.3793 1055.48C20.0172 1054.71 11.7931 1054.09 8.22414 1054.09L1.55172 1053.93L1.08621 1098.62C0.931034 1123.14 0.62069 826.603 0.310345 439.603L0 -264.103L11.0172 -245.483C29.3276 -214.759 50.1207 -178.293 59.7414 -160.293C64.7069 -150.828 69.2069 -142.448 69.9828 -141.672C71.3793 -139.81 122.586 -37.3966 122.586 -36.4655C122.586 -36 127.086 -26.3793 132.517 -15.0518C137.948 -3.56899 148.345 18.6207 155.638 34.4482C162.931 50.2758 170.845 67.6551 173.483 73.2413C176.121 78.8276 186.517 101.638 196.759 123.828C293.741 334.707 359.379 447.828 452.328 563.586C519.517 647.224 605.172 731.483 692.845 800.379C766.707 858.414 853.448 914.741 955.086 970.448C982.552 985.655 1055.02 1022.28 1082.33 1034.84C1090.09 1038.41 1103.12 1044.47 1111.5 1048.34C1120.03 1052.22 1127.02 1055.48 1127.33 1055.48C1127.64 1055.48 1132.91 1057.81 1139.28 1060.76C1153.24 1067.12 1200.88 1087.6 1210.34 1091.17C1214.22 1092.72 1225.4 1097.22 1235.17 1101.1C1244.95 1105.14 1265.9 1113.36 1281.72 1119.41C1340.38 1141.76 1356.52 1146.41 1315.86 1129.19C1304.38 1124.22 1289.79 1117.86 1283.59 1115.07C1277.22 1112.12 1271.95 1109.79 1271.48 1109.79C1271.17 1109.79 1264.19 1106.69 1255.97 1102.81C1247.9 1098.93 1240.91 1095.83 1240.6 1095.83C1239.36 1095.83 1210.81 1082.17 1170.31 1062.31C977.276 967.034 817.448 855.776 691.603 728.845C614.017 650.793 545.121 560.328 493.914 469.707C489.569 462.103 483.828 451.862 481.19 447.207C459.465 408.879 421.759 326.793 402.672 276.517C398.638 265.81 394.759 255.724 394.138 254.017C392.741 250.448 384.052 225.931 380.948 216.776C378 208.086 365.586 167.431 362.328 156.259C360.931 151.138 359.224 145.241 358.448 143.069C356.586 137.638 352.552 123.052 348.052 105.828C339.828 74.1724 335.017 54.931 332.69 45.3103C331.448 39.7241 329.276 30.7241 327.879 25.1379C323.845 8.22411 321.828 -1.08623 316.552 -24.5173C309.259 -56.7931 307.707 -64.2414 305.069 -76.5C303.828 -82.3966 300.259 -98.8449 297.31 -112.966C294.207 -127.086 290.638 -143.845 289.241 -150.207C288 -156.569 285.828 -166.345 284.741 -171.931C283.5 -177.517 281.483 -187.293 280.086 -193.655C278.69 -200.017 276.828 -208.086 276.052 -211.345C275.121 -214.603 273.879 -220.655 273.103 -224.535C272.328 -228.414 268.603 -245.328 264.724 -261.931C260.845 -278.534 256.966 -295.293 256.19 -299.172C255.259 -303.052 253.862 -308.638 252.931 -311.586C252.155 -314.534 250.293 -321.828 248.897 -327.879C236.328 -382.966 203.431 -489.879 184.655 -537.362C181.241 -545.897 175.81 -559.862 172.397 -568.397C162.466 -593.379 145.862 -630.155 131.741 -657.931L118.552 -684H293.741H468.931L468 -680.121C467.534 -678.103 465.983 -666.776 464.741 -654.983C463.345 -643.19 461.328 -624.103 459.931 -612.621C439.448 -427.19 431.534 -306.621 431.534 -178.138C431.379 -63.3104 439.759 43.4482 455.276 128.328C456.517 135.155 458.224 145.241 459.155 150.828C461.172 162 464.897 180.776 467.069 190.397C467.845 193.81 470.017 202.965 471.724 210.569C478.552 240.672 490.81 283.81 502.138 318.103C548.845 457.759 624.879 590.431 722.172 701.69C811.707 803.793 924.672 898.448 1055.17 980.224C1080 995.896 1117.24 1018.24 1118.17 1018.24C1118.48 1018.24 1121.43 1019.95 1124.69 1021.97C1154.79 1040.9 1267.29 1098.47 1318.19 1120.97C1325.95 1124.38 1334.17 1128.1 1336.66 1129.34C1339.14 1130.59 1341.47 1131.21 1341.93 1130.9C1342.24 1130.43 1339.45 1128.57 1335.72 1126.71C1332.16 1124.84 1323.78 1120.5 1317.41 1117.09C1311.05 1113.67 1299.88 1107.78 1292.59 1103.9C1280.02 1097.22 1258.91 1085.74 1242.16 1076.43C1237.97 1073.95 1218.72 1062.62 1199.64 1051.14C991.552 926.069 834.207 779.121 731.328 614.017C701.379 565.914 667.397 497.948 649.086 449.534C647.845 446.121 645.828 440.845 644.586 437.897C642.879 433.241 635.741 412.914 631.552 400.655C630.776 398.483 628.759 391.5 626.897 385.138C625.034 378.776 622.552 370.707 621.465 367.293C618.828 359.069 607.345 312.362 605.017 300.569C604.086 295.448 602.224 285.983 601.138 279.621C580.655 169.293 582.517 30.8793 605.948 -85.0345C607.19 -91.3966 608.897 -100.552 609.828 -105.517C611.224 -113.276 618.362 -143.535 622.241 -157.966C659.793 -299.172 721.707 -432 803.328 -546.983C835.293 -592.138 863.379 -626.741 902.948 -669.569L916.138 -684H1072.09H1228.19L1211.12 -672.672C1082.02 -587.172 971.69 -485.69 882 -369.776C853.914 -333.621 815.431 -275.121 793.086 -234.931C786.569 -223.293 761.586 -173.328 755.69 -160.293C753.052 -154.241 750.259 -148.035 749.483 -146.328C745.914 -138.414 736.293 -113.897 731.328 -100.552C711.465 -45.6207 699.672 -3.41382 690.672 45.3103C684.776 76.6551 684.465 78.5172 683.534 86.431C683.069 90.7758 681.983 99.1551 681.207 105.052C678.724 122.276 675 179.069 675 199.241C675 219.724 678.879 276.828 681.207 291.259C681.983 296.379 683.069 304.448 683.534 309.103C684 313.759 685.086 320.741 685.862 324.621C686.638 328.5 688.81 339.672 690.672 349.448C692.379 359.224 694.552 369.776 695.328 372.724C695.948 375.672 697.965 383.741 699.672 390.569C720 474.983 758.328 564.983 809.69 648.155C864 736.448 945.621 830.328 1038.88 911.948C1120.19 983.172 1244.48 1068.36 1343.02 1120.5C1360.86 1129.97 1354.66 1125.16 1323.62 1105.14C1089.78 954.776 920.483 767.017 839.948 568.397C825.207 532.241 808.914 481.655 802.241 451.862C794.483 417.414 790.138 392.586 784.862 351C782.379 331.293 782.379 232.138 784.862 214.914C785.948 207.776 787.5 196.448 788.276 189.465C789.983 176.586 798.052 134.534 800.69 124.603C801.465 121.5 804.259 110.948 806.897 101.172C839.328 -19.5518 908.845 -142.914 1006.29 -252.621C1049.12 -300.879 1120.5 -367.914 1170.93 -407.017C1217.48 -443.172 1262.95 -475.759 1305.31 -503.224C1324.24 -515.328 1405.24 -564.517 1406.48 -564.517C1406.95 -564.517 1413.31 -568.086 1420.91 -572.431C1428.36 -576.776 1435.81 -580.966 1437.21 -581.741C1439.84 -583.138 1440 -579.724 1440 -518.431L1439.84 -453.569L1414.86 -438.828C1319.59 -382.655 1225.71 -314.224 1149.83 -245.793C1130.74 -228.569 1077.98 -174.414 1059.67 -153.31C983.948 -65.7931 927.931 27.4655 895.034 121.345C886.81 144.776 879.672 170.069 873 198.931C869.741 213.517 866.328 232.448 863.224 255.569C859.19 284.741 859.345 378.776 863.224 406.862C869.121 448.293 872.534 466.759 878.586 491.431C880.293 498.259 882.31 506.638 883.086 510.052C892.862 550.552 914.431 607.345 939.569 659.017C952.448 685.552 955.552 691.138 974.172 722.638C1041.98 836.534 1141.45 947.638 1262.33 1044.47C1301.59 1075.97 1376.69 1130.28 1378.55 1128.26C1378.86 1127.95 1367.69 1118.33 1353.57 1106.84C1312.14 1073.02 1289.33 1052.38 1249.76 1012.81C1172.48 935.69 1116.31 863.845 1066.81 779.276C1052.07 754.138 1022.12 695.172 1014.05 675.31C1002.72 647.534 987.517 604.862 983.948 590.741C983.017 587.328 981.31 580.345 979.914 575.224C971.069 542.638 966.724 519.983 960.362 475.138C957.259 454.034 956.948 444.414 956.948 397.552C956.948 350.534 957.259 341.224 960.362 320.741C966.569 277.603 967.034 275.431 979.138 228.414C981 221.431 990.621 193.19 994.5 183.724C1033.91 86.2758 1088.53 2.94825 1166.28 -78.8276C1172.48 -85.1897 1179 -92.3276 1181.02 -94.6552C1194.05 -109.397 1254.41 -163.707 1287.93 -190.707C1326.57 -221.897 1396.4 -271.397 1434.26 -294.362L1440 -297.931V-242.69C1440 -203.741 1439.53 -187.448 1438.29 -187.448C1436.43 -187.448 1420.45 -176.121 1391.12 -154.241C1289.79 -78.5173 1206.16 4.96549 1148.59 87.9827C1073.33 196.293 1037.95 300.103 1034.07 422.845C1031.9 490.5 1041.21 560.638 1061.53 631.086C1065.41 644.896 1067.59 651.879 1069.14 656.69C1073.79 670.19 1080.31 688.81 1081.55 691.603C1082.33 693.31 1087.6 705.879 1093.34 719.534C1103.9 744.983 1127.02 792.31 1137.41 810.31C1140.52 815.896 1145.17 823.965 1147.5 828.155C1152.31 837 1154.64 840.724 1172.95 869.276C1204.76 919.086 1233.47 957.259 1276.91 1007.38C1308.41 1043.84 1402.76 1136.79 1405.4 1134C1405.86 1133.53 1398.57 1124.22 1389.26 1113.36C1338.05 1053.16 1285.45 979.293 1254.41 923.586C1250.84 917.224 1246.34 909.155 1244.48 905.741C1235.17 889.293 1216.71 852.052 1206.16 828.155C1166.28 738.31 1143 650.638 1135.71 563.586C1133.69 539.379 1134.78 453.569 1137.26 437.897C1144.71 392.586 1146.41 384.052 1155.72 351C1187.22 238.81 1256.12 130.345 1356.21 34.9138C1387.24 5.43101 1435.97 -36.9311 1438.91 -36.9311C1439.53 -36.9311 1440 -8.84485 1440 25.6034V88.1379L1426.34 102.103C1362.72 166.81 1305.47 250.914 1272.72 327.724C1254.26 371.017 1239.83 415.086 1235.02 442.397C1234.24 447.052 1233.31 451.241 1232.84 451.707C1231.91 453.259 1225.86 488.948 1224.16 503.845C1221.05 529.759 1220.59 597.259 1223.53 624.103C1228.19 668.793 1233.93 702.621 1243.24 740.483C1244.95 747.776 1247.28 757.552 1248.36 762.207C1249.45 766.862 1251.16 772.914 1251.93 775.396C1252.71 778.034 1254.72 784.241 1256.12 789.362C1259.69 801.465 1275.83 848.948 1280.17 859.965C1282.03 864.621 1284.05 870.207 1284.83 872.379C1286.22 876.569 1302.83 915.517 1311.36 934.448C1326.72 968.431 1358.69 1028.02 1382.9 1067.59C1396.86 1090.4 1432.09 1143.62 1433.95 1144.86C1436.12 1146.1 1435.66 1142.84 1431.62 1131.05C1425.88 1113.83 1415.02 1079.07 1406.02 1048.5C1397.17 1018.4 1379.79 951.828 1376.38 934.448C1375.6 930.569 1373.43 920.793 1371.72 912.724C1367.84 895.655 1367.53 893.328 1361.02 856.086C1353.26 812.017 1348.6 774 1345.19 728.069C1343.17 700.448 1344.26 621.155 1346.9 600.828C1352.02 561.103 1357.91 524.793 1360.86 514.707C1361.64 512.224 1363.81 503.845 1365.67 496.086C1373.59 462.569 1394.22 406.707 1411.29 372.879C1419.05 357.207 1437.67 323.379 1439.38 321.672C1439.69 321.362 1440 513.776 1440 749.483V1178.07H1410.83C1394.53 1178.07 1381.03 1177.45 1380.26 1176.67C1379.33 1175.74 1374.21 1174.34 1368.62 1173.57C1356.05 1171.4 1324.4 1165.66 1297.24 1160.38C1290.88 1159.14 1279.86 1156.97 1272.88 1155.72C1250.38 1151.38 1234.71 1148.28 1224.31 1146.26C1218.72 1145.17 1208.33 1143 1201.03 1141.6C1193.74 1140.21 1183.34 1138.03 1177.76 1136.95C1172.17 1135.86 1162.09 1133.84 1155.26 1132.45C1148.43 1131.05 1137.57 1128.88 1131.21 1127.48C1124.84 1126.09 1115.07 1124.07 1109.48 1122.98C1094.28 1119.72 1091.48 1119.1 1072.24 1114.91C1062.47 1112.74 1051.29 1110.41 1047.41 1109.64C1043.53 1108.86 1037.64 1107.62 1034.22 1106.69C1030.81 1105.91 1019.64 1103.43 1009.4 1101.1C999.155 1098.93 986.276 1095.98 980.69 1094.74C975.103 1093.5 967.81 1091.79 964.397 1091.17C960.983 1090.4 949.19 1087.6 938.017 1084.97C927 1082.33 913.345 1079.22 907.759 1077.98C884.017 1072.55 737.69 1035.47 709.914 1027.71C685.086 1020.72 679.81 1019.33 675.776 1018.24C673.293 1017.62 665.534 1015.45 658.707 1013.59C651.879 1011.72 644.276 1009.55 641.638 1008.93C636.517 1007.69 591.207 994.655 568.707 987.983C546.672 981.465 541.241 979.759 534.569 977.896C531.155 976.965 523.552 974.483 517.5 972.465C511.603 970.603 501.362 967.345 495 965.483C464.897 956.638 354.103 919.552 311.121 904.19C300.103 900.155 285.362 894.879 278.534 892.552C244.397 880.603 157.19 846.931 112.5 828.621C102.259 824.431 92.1724 820.241 90 819.31C87.8276 818.534 67.6552 809.845 45 800.224C22.3448 790.603 3.41379 783.31 2.63793 783.776C2.01724 784.396 1.7069 819.465 1.86207 861.517L2.32759 938.172L6.98276 939.414C9.62069 940.034 21.4138 942.672 33.3621 945.31C45.3103 947.948 57.569 950.741 60.6724 951.517C63.7759 952.448 69.6724 953.69 73.8621 954.621C78.0517 955.396 85.9655 957.103 91.5517 958.345C119.483 964.552 131.741 967.345 138.103 968.586C141.983 969.362 150.052 971.069 155.948 972.465C162 973.862 171.776 975.879 177.672 977.121C183.724 978.362 193.5 980.379 199.397 981.776C205.448 983.017 220.81 986.276 233.534 988.914C246.414 991.552 261.776 994.81 267.672 996.052C273.724 997.293 283.655 999.31 289.707 1000.55C295.914 1001.79 306.31 1003.81 312.672 1005.05C319.034 1006.45 329.586 1008.47 335.948 1009.71C342.31 1011.1 353.017 1013.12 359.534 1014.52C366.207 1015.76 376.914 1017.93 383.276 1019.17C389.638 1020.26 397.086 1021.66 399.569 1022.12C416.328 1025.38 429.052 1027.86 439.138 1029.88C445.5 1031.12 462.259 1034.38 476.379 1036.86C502.914 1041.67 520.448 1044.93 539.224 1048.5C549.621 1050.52 560.638 1052.53 590.897 1057.81C598.345 1059.05 607.965 1060.91 612.155 1061.69C616.5 1062.47 624.414 1063.86 630 1064.79C635.586 1065.72 645.983 1067.43 653.276 1068.67C660.569 1069.91 672.828 1071.93 680.431 1073.33C693.465 1075.66 703.086 1077.21 735.517 1082.64C757.707 1086.21 786.879 1091.02 800.69 1093.34C829.086 1098.16 871.448 1104.98 917.534 1112.12C925.759 1113.36 939.103 1115.38 947.017 1116.62C954.776 1118.02 968.586 1120.03 977.586 1121.43C986.586 1122.83 1000.24 1124.84 1007.84 1126.09C1015.6 1127.17 1029.88 1129.34 1039.66 1130.74C1049.43 1132.14 1061.07 1133.84 1065.26 1134.62C1069.6 1135.55 1078.6 1136.79 1085.43 1137.72C1092.26 1138.5 1104.83 1140.21 1113.36 1141.45C1138.66 1145.17 1161.93 1148.59 1180.09 1151.07C1212.05 1155.57 1228.97 1157.9 1245.72 1160.22C1254.88 1161.62 1267.91 1163.33 1274.74 1164.1C1281.57 1165.03 1288.86 1165.97 1291.03 1166.43C1295.38 1167.36 1329.98 1171.86 1367.07 1176.36C1372.97 1177.14 1343.95 1177.6 1296.47 1177.6C1238.43 1177.6 1212.98 1177.14 1205.69 1175.74ZM1372.81 1167.83C1372.34 1167.36 1370.95 1167.21 1369.86 1167.67C1368.62 1168.14 1369.09 1168.6 1370.79 1168.6C1372.5 1168.76 1373.43 1168.29 1372.81 1167.83ZM1358.53 1163.33C1355.12 1162.09 1349.22 1160.38 1345.34 1159.45C1341.47 1158.67 1334.95 1156.97 1330.6 1155.72C1326.41 1154.48 1307.48 1149.21 1288.71 1143.93C1269.93 1138.66 1251.16 1133.38 1246.81 1132.29C1238.74 1130.12 1234.55 1128.88 1207.24 1120.66C1198.24 1118.02 1187.53 1114.76 1183.19 1113.52C1179 1112.28 1172.02 1110.26 1167.67 1108.86C1163.48 1107.62 1157.9 1105.91 1155.26 1105.14C1152.78 1104.36 1142.53 1101.26 1132.76 1098.16C1122.98 1095.05 1109.02 1090.71 1101.72 1088.53C1072.86 1079.69 955.086 1039.19 916.293 1024.76C909.465 1022.28 898.293 1018.09 891.465 1015.6C848.017 999.465 768.259 967.19 743.121 955.707C738.465 953.69 727.914 949.034 719.534 945.465C634.81 909.31 520.448 851.276 432.931 799.759C316.707 731.328 205.759 651.414 95.431 556.759C83.4828 546.517 70.9138 535.5 67.5 532.397C64.0862 529.293 53.6897 519.983 44.2241 511.448C34.9138 503.069 22.0345 491.276 15.8276 485.224C9.62069 479.328 3.87931 474.052 2.94828 473.897C2.01724 473.586 1.7069 508.19 1.86207 566.69L2.32759 660.103L21.7241 672.052C70.6034 702 142.759 742.965 193.966 769.655C242.69 794.948 302.276 824.431 333.621 838.707C338.276 840.879 348.517 845.534 356.121 849.103C372.259 856.707 424.086 879.362 444.569 887.896C452.328 891.155 467.224 897.362 477.931 901.707C488.638 906.207 498.724 910.396 500.431 911.017C502.138 911.793 507.414 913.965 512.069 915.828C516.724 917.534 522 919.707 523.707 920.328C525.414 921.103 528.983 922.5 531.465 923.586C580.81 943.603 724.034 994.034 793.707 1015.91C806.586 1019.79 819.155 1023.83 821.638 1024.76C843.207 1031.9 950.586 1063.71 986.121 1073.33C990.465 1074.41 1000.24 1077.21 1007.84 1079.22C1015.6 1081.4 1027.4 1084.66 1034.22 1086.52C1041.05 1088.38 1050.21 1090.86 1054.4 1091.95C1058.74 1093.03 1078.91 1098.31 1099.4 1103.59C1158.21 1118.79 1183.03 1124.84 1247.59 1140.21C1258.14 1142.69 1260.93 1143.31 1284.05 1148.59C1291.81 1150.29 1300.81 1152.47 1304.22 1153.24C1307.64 1154.02 1316.79 1156.19 1324.4 1157.9C1332.16 1159.6 1341.16 1161.78 1344.57 1162.55C1354.5 1164.88 1356.83 1165.34 1360.86 1165.34C1363.81 1165.5 1363.19 1165.03 1358.53 1163.33ZM1351.55 1153.24C1350.31 1152.47 1348.6 1151.69 1347.67 1151.69C1346.9 1151.69 1347.21 1152.47 1348.45 1153.24C1349.69 1154.02 1351.55 1154.79 1352.33 1154.79C1353.26 1154.79 1352.79 1154.02 1351.55 1153.24ZM1345.19 1151.07C1344.88 1150.76 1340.38 1149.05 1335.26 1147.19C1301.59 1135.86 1243.09 1114.76 1224.31 1107.47C1221.36 1106.22 1213.29 1103.28 1206.47 1100.64C1178.69 1090.24 1120.03 1066.81 1108.71 1061.69C1107 1060.91 1098.62 1057.34 1090.09 1053.78C1062.93 1042.45 1022.12 1024.29 986.121 1007.38C968.897 999.31 885.879 957.879 883.707 956.328C882.931 955.552 874.552 951.052 865.086 946.086C855.776 941.121 840.103 932.586 830.483 927.155C670.345 836.534 540.776 739.086 427.5 623.793C388.707 584.534 385.914 581.431 355.966 546.517C276.052 453.259 215.379 366.362 101.948 182.638C63.6207 120.569 28.0862 63.7758 12.7241 39.8793L1.55172 22.8103V165.259V307.707L31.3448 342.931C62.3793 379.552 96.9828 419.741 108 431.69C111.414 435.569 118.707 443.638 124.138 449.534C155.638 484.293 170.379 499.965 204.828 534.569C318.103 649.241 419.121 731.172 550.086 814.19C578.017 831.879 625.5 860.121 650.172 873.621C654.052 875.638 659.328 878.586 661.81 880.138C664.448 881.534 672.362 886.034 679.655 889.759C686.948 893.638 698.431 899.845 705.259 903.414C750.724 927.776 818.845 960.517 875.793 985.034C888.672 990.621 901.241 996.052 903.724 997.293C920.328 1004.74 988.448 1032.36 1011.72 1041.05C1019.79 1044 1032.83 1048.97 1040.43 1051.91C1048.19 1055.02 1059.98 1059.36 1066.81 1061.69C1073.64 1064.17 1084.19 1067.9 1090.09 1070.07C1119.88 1080.78 1135.4 1086.21 1175.43 1099.55C1199.33 1107.62 1232.84 1118.33 1249.91 1123.76C1266.98 1129.03 1283.74 1134.31 1287.16 1135.4C1290.57 1136.48 1299.26 1139.12 1306.55 1141.29C1313.84 1143.47 1324.24 1146.57 1329.83 1148.28C1339.14 1151.22 1346.74 1152.62 1345.19 1151.07ZM1344.88 1141.29C1344.26 1140.83 1343.33 1140.83 1342.71 1141.29C1342.24 1141.91 1342.71 1142.38 1343.79 1142.38C1344.88 1142.38 1345.34 1141.91 1344.88 1141.29ZM1346.43 1131.98C1345.81 1131.52 1344.88 1131.52 1344.26 1131.98C1343.79 1132.6 1344.26 1133.07 1345.34 1133.07C1346.43 1133.07 1346.9 1132.6 1346.43 1131.98Z" fill="#FFFD00"/>
<path d="M0.775879 164.793C0.775879 85.8104 0.931051 53.5346 1.08622 93.1035C1.39657 132.517 1.39657 197.069 1.08622 236.638C0.931051 276.052 0.775879 243.776 0.775879 164.793Z" fill="#FFD741"/>
<path d="M0.775879 565.914C0.775879 513.931 0.931051 492.828 1.08622 519.052C1.39657 545.431 1.39657 587.948 1.08622 613.707C0.931051 639.465 0.775879 618.052 0.775879 565.914Z" fill="#FFE241"/>
</g>
</g>
<defs>
<clipPath id="clip0">
<rect width="1440" height="1024" fill="white"/>
</clipPath>
<clipPath id="clip1">
<rect y="-684" width="1440" height="1862.07" fill="white"/>
</clipPath>
</defs>
</svg>
